<?xml version="1.0" standalone="no"?>
<!DOCTYPE svg PUBLIC "-//W3C//DTD SVG 1.1//EN" "http://www.w3.org/Graphics/SVG/1.1/DTD/svg11.dtd" >
<svg xmlns="http://www.w3.org/2000/svg" xmlns:xlink="http://www.w3.org/1999/xlink" version="1.1">
<metadata>
Created by FontForge 20170731 at Wed Aug 31 08:09:35 2016
 By Aleksey,,,
Copyright (c) 2016 by Typetype. Designer Ivan Gladkikh, technical designers Olga Yumartova, Olexa Volochay. All rights reserved.
</metadata>
<defs>
<font id="TTLakesCondensed-ExtraBold" horiz-adv-x="510" >
  <font-face 
    font-family="TT Lakes Condensed DemiBold"
    font-weight="800"
    font-stretch="condensed"
    units-per-em="1000"
    panose-1="2 0 9 3 4 0 0 2 0 4"
    ascent="800"
    descent="-200"
    x-height="510"
    cap-height="700"
    bbox="-119.273 -285 1050 995"
    underline-thickness="50"
    underline-position="-200"
    unicode-range="U+000D-2212"
  />
<missing-glyph horiz-adv-x="0" 
 />
    <glyph glyph-name=".notdef" horiz-adv-x="0" 
 />
    <glyph glyph-name=".null" horiz-adv-x="0" 
 />
    <glyph glyph-name=".null" horiz-adv-x="0" 
 />
    <glyph glyph-name="nonmarkingreturn" unicode="&#xd;" horiz-adv-x="0" 
 />
    <glyph glyph-name="space" unicode=" " horiz-adv-x="200" 
 />
    <glyph glyph-name="exclam" unicode="!" horiz-adv-x="300" 
d="M75 125q0 30 30 30h90q30 0 30 -30v-95q0 -30 -30 -30h-90q-30 0 -30 30v95zM65 670q0 30 30 30h110q30 0 30 -30v-250l-25 -170q-5 -30 -35 -30h-50q-31 0 -35 30l-25 170v250z" />
    <glyph glyph-name="quotedbl" unicode="&#x22;" horiz-adv-x="395" 
d="M50 670q0 30 30 30h65q30 0 30 -30v-185q0 -30 -30 -30h-65q-30 0 -30 30v185zM220 670q0 30 30 30h65q30 0 30 -30v-185q0 -30 -30 -30h-65q-30 0 -30 30v185z" />
    <glyph glyph-name="numbersign" unicode="#" horiz-adv-x="655" 
d="M535 410l-25 -120h35q30 0 30 -30v-90q0 -30 -30 -30h-65l-25 -110q-4 -15 -12 -22.5t-23 -7.5h-105q-28 0 -20 30l25 110h-70l-25 -110q-4 -15 -12 -22.5t-23 -7.5h-105q-28 0 -20 30l25 110h-35q-30 0 -30 30v90q0 30 30 30h65l25 120h-35q-30 0 -30 30v90q0 30 30 30
h65l25 110q7 30 35 30h105q27 0 20 -30l-25 -110h70l25 110q7 30 35 30h105q27 0 20 -30l-25 -110h35q30 0 30 -30v-90q0 -30 -30 -30h-65zM275 285h80l25 130h-80z" />
    <glyph glyph-name="dollar" unicode="$" horiz-adv-x="625" 
d="M410 200q0 19 -5.5 25.5t-24.5 14.5l-220 90q-27 11 -48 24t-34.5 30.5t-20.5 40.5t-7 55v80q0 150 150 150h25v50q0 30 30 30h115q30 0 30 -30v-50h30q150 0 150 -150v-75q0 -30 -30 -30h-120q-30 0 -30 30v25q0 40 -40 40h-90q-40 0 -40 -40v-10q0 -19 5.5 -25.5
t24.5 -14.5l220 -90q28 -11 48.5 -24t34 -30.5t20.5 -40.5t7 -55v-80q0 -150 -150 -150h-40v-50q0 -30 -30 -30h-115q-30 0 -30 30v50h-40q-150 0 -150 150v75q0 30 30 30h120q30 0 30 -30v-25q0 -40 40 -40h115q40 0 40 40v10z" />
    <glyph glyph-name="percent" unicode="%" horiz-adv-x="780" 
d="M310 475q0 -105 -105 -105h-70q-105 0 -105 105v130q0 105 105 105h70q105 0 105 -105v-130zM195 580q0 25 -25 25t-25 -25v-80q0 -25 25 -25t25 25v80zM470 225q0 105 105 105h70q105 0 105 -105v-130q0 -105 -105 -105h-70q-105 0 -105 105v130zM585 120q0 -25 25 -25
t25 25v80q0 25 -25 25t-25 -25v-80zM435 670q12 30 40 30h105q11 0 16 -7.5t-1 -22.5l-250 -640q-12 -30 -40 -30h-105q-11 0 -16 7.5t1 22.5z" />
    <glyph glyph-name="ampersand" unicode="&#x26;" horiz-adv-x="627" 
d="M265 497q0 -24 6.5 -34t13.5 -18l140 -165l45 45q7 8 17 8t18 -8l70 -75q15 -17 0 -35l-50 -50l120 -135q11 -11 6 -20.5t-16 -9.5h-150q-19 0 -30 8t-25 22l-20 20q-13 -17 -33 -30q-17 -11 -45 -20.5t-67 -9.5h-80q-150 0 -150 150v80q0 45 16 71.5t36 40.5
q23 17 53 23v10q-16 7 -28 22q-11 13 -19 35t-8 58v80q0 150 150 150h125q150 0 150 -150v-55q0 -30 -30 -30h-105q-30 0 -30 30v15q0 30 -30 30h-20q-30 0 -30 -30v-23zM205 185q0 -40 40 -40h25q9 0 17.5 3t14.5 7q7 4 13 10l-80 95q-9 -2 -15 -7t-10.5 -12.5t-4.5 -20.5
v-35z" />
    <glyph glyph-name="quotesingle" unicode="'" horiz-adv-x="225" 
d="M50 670q0 30 30 30h65q30 0 30 -30v-185q0 -30 -30 -30h-65q-30 0 -30 30v185z" />
    <glyph glyph-name="parenleft" unicode="(" horiz-adv-x="365" 
d="M235 45q0 -30 17.5 -47.5t47.5 -17.5h15q30 0 30 -30v-90q0 -30 -30 -30h-80q-83 0 -126.5 43.5t-43.5 126.5v560q0 83 43.5 126.5t126.5 43.5h80q30 0 30 -30v-90q0 -30 -30 -30h-15q-30 0 -47.5 -17.5t-17.5 -47.5v-470z" />
    <glyph glyph-name="parenright" unicode=")" horiz-adv-x="365" 
d="M130 515q0 30 -17.5 47.5t-47.5 17.5h-15q-30 0 -30 30v90q0 30 30 30h80q83 0 126.5 -43.5t43.5 -126.5v-560q0 -83 -43.5 -126.5t-126.5 -43.5h-80q-30 0 -30 30v90q0 30 30 30h15q30 0 47.5 17.5t17.5 47.5v470z" />
    <glyph glyph-name="asterisk" unicode="*" horiz-adv-x="385" 
d="M145 370q-7 -8 -17 -8t-18 8l-45 45q-8 8 -7.5 17.5t7.5 17.5l40 45h-40q-30 0 -30 30v50q0 30 30 30h70v65q0 30 30 30h55q30 0 30 -30v-65h70q30 0 30 -30v-50q0 -30 -30 -30h-40l40 -45q16 -19 0 -35l-45 -45q-8 -8 -18 -8t-17 8l-45 55z" />
    <glyph glyph-name="plus" unicode="+" horiz-adv-x="440" 
d="M180 105q-30 0 -30 30v110h-95q-30 0 -30 30v80q0 30 30 30h95v110q0 30 30 30h80q30 0 30 -30v-110h95q30 0 30 -30v-80q0 -30 -30 -30h-95v-110q0 -30 -30 -30h-80z" />
    <glyph glyph-name="comma" unicode="," horiz-adv-x="210" 
d="M180 40q0 -26 -3.5 -34.5t-6.5 -15.5l-30 -75q-5 -11 -12.5 -18t-22.5 -7h-25q-11 0 -15.5 5t0.5 20l30 85h-35q-30 0 -30 30v95q0 30 30 30h90q30 0 30 -30v-85z" />
    <glyph glyph-name="hyphen" unicode="-" horiz-adv-x="405" 
d="M25 355q0 30 30 30h295q30 0 30 -30v-80q0 -30 -30 -30h-295q-30 0 -30 30v80z" />
    <glyph glyph-name="period" unicode="." horiz-adv-x="210" 
d="M30 125q0 30 30 30h90q30 0 30 -30v-95q0 -30 -30 -30h-90q-30 0 -30 30v95z" />
    <glyph glyph-name="slash" unicode="/" horiz-adv-x="399" 
d="M202 670q5 15 12.5 22.5t22.5 7.5h130q11 0 18 -7.5t2 -22.5l-190 -640q-5 -15 -12.5 -22.5t-22.5 -7.5h-130q-11 0 -18 7.5t-2 22.5z" />
    <glyph glyph-name="zero" unicode="0" horiz-adv-x="650" 
d="M410 510q0 40 -40 40h-90q-40 0 -40 -40v-320q0 -40 40 -40h90q40 0 40 40v320zM590 140q0 -150 -150 -150h-230q-150 0 -150 150v420q0 150 150 150h230q150 0 150 -150v-420z" />
    <glyph glyph-name="one" unicode="1" horiz-adv-x="385" 
d="M315 30q0 -30 -30 -30h-120q-30 0 -30 30v510h-90q-30 0 -30 30v100q0 30 30 30h240q30 0 30 -30v-640z" />
    <glyph glyph-name="two" unicode="2" horiz-adv-x="590" 
d="M360 510q0 40 -40 40h-50q-40 0 -40 -40v-25q0 -30 -30 -30h-120q-30 0 -30 30v75q0 150 150 150h190q150 0 150 -150v-85q0 -26 -4.5 -45.5t-13 -34.5t-20.5 -28t-27 -27l-180 -170v-10h215q30 0 30 -30v-100q0 -30 -30 -30h-435q-30 0 -30 30v100q0 19 5 27t20 23
l270 260q12 11 16 20t4 35v15z" />
    <glyph glyph-name="three" unicode="3" horiz-adv-x="575" 
d="M490 700q30 0 30 -30v-90q0 -19 -7 -29t-18 -21l-110 -100v-10q145 0 145 -150v-130q0 -150 -150 -150h-205q-150 0 -150 150v65q0 30 30 30h120q30 0 30 -30v-15q0 -40 40 -40h65q40 0 40 40v60q0 40 -40 40h-105q-30 0 -30 30v60q0 23 4.5 31t15.5 19l110 100v10h-230
q-30 0 -30 30v100q0 30 30 30h415z" />
    <glyph glyph-name="four" unicode="4" horiz-adv-x="585" 
d="M560 180q0 -30 -30 -30h-25v-120q0 -30 -30 -30h-120q-30 0 -30 30v120h-275q-30 0 -30 30v85q0 11 1.5 19.5t5 16.5t9.5 17t14 22l210 330q10 15 21 22.5t34 7.5h160q30 0 30 -30v-360h25q30 0 30 -30v-100zM210 320v-10h115v175h-10z" />
    <glyph glyph-name="five" unicode="5" horiz-adv-x="595" 
d="M70 670q0 30 30 30h390q30 0 30 -30v-100q0 -30 -30 -30h-240v-95h150q150 0 150 -150v-155q0 -150 -150 -150h-205q-150 0 -150 150v60q0 30 30 30h120q30 0 30 -30v-10q0 -40 40 -40h65q40 0 40 40v65q0 40 -40 40h-230q-30 0 -30 30v345z" />
    <glyph glyph-name="six" unicode="6" horiz-adv-x="620" 
d="M545 505q0 -30 -30 -30h-115q-30 0 -30 30v5q0 40 -40 40h-50q-40 0 -40 -40v-75h170q150 0 150 -150v-145q0 -150 -150 -150h-200q-150 0 -150 150v420q0 150 150 150h185q150 0 150 -150v-55zM380 245q0 40 -40 40h-100v-95q0 -40 40 -40h60q40 0 40 40v55z" />
    <glyph glyph-name="seven" unicode="7" 
d="M490 595q0 -15 -1 -24t-2.5 -15t-3 -10.5l-3.5 -10.5l-180 -505q-11 -30 -40 -30h-133q-11 0 -17 7.5t0 22.5l195 500v10h-255q-30 0 -30 30v100q0 30 30 30h410q30 0 30 -30v-75z" />
    <glyph glyph-name="eight" unicode="8" horiz-adv-x="605" 
d="M195 -10q-150 0 -150 150v100q0 42 14 65.5t31 35.5q19 14 45 19v10q-21 5 -38 16q-14 10 -25.5 28.5t-11.5 50.5v95q0 150 150 150h185q150 0 150 -150v-95q0 -32 -12 -50.5t-26 -28.5q-17 -11 -37 -16v-10q25 -5 45 -19q17 -12 31 -35.5t14 -65.5v-100
q0 -150 -150 -150h-215zM265 275q-40 0 -40 -40v-45q0 -40 40 -40h75q40 0 40 40v45q0 40 -40 40h-75zM240 470q0 -40 40 -40h45q40 0 40 40v40q0 40 -40 40h-45q-40 0 -40 -40v-40z" />
    <glyph glyph-name="nine" unicode="9" horiz-adv-x="620" 
d="M75 195q0 30 30 30h115q30 0 30 -30v-5q0 -40 40 -40h50q40 0 40 40v75h-170q-150 0 -150 150v145q0 150 150 150h200q150 0 150 -150v-420q0 -150 -150 -150h-185q-150 0 -150 150v55zM240 455q0 -40 40 -40h100v95q0 40 -40 40h-60q-40 0 -40 -40v-55z" />
    <glyph glyph-name="colon" unicode=":" horiz-adv-x="210" 
d="M30 125q0 30 30 30h90q30 0 30 -30v-95q0 -30 -30 -30h-90q-30 0 -30 30v95zM30 480q0 30 30 30h90q30 0 30 -30v-95q0 -30 -30 -30h-90q-30 0 -30 30v95z" />
    <glyph glyph-name="semicolon" unicode=";" horiz-adv-x="210" 
d="M180 40q0 -26 -3.5 -34.5t-6.5 -15.5l-30 -75q-5 -11 -12.5 -18t-22.5 -7h-25q-11 0 -15.5 5t0.5 20l30 85h-35q-30 0 -30 30v95q0 30 30 30h90q30 0 30 -30v-85zM30 480q0 30 30 30h90q30 0 30 -30v-95q0 -30 -30 -30h-90q-30 0 -30 30v95z" />
    <glyph glyph-name="less" unicode="&#x3c;" horiz-adv-x="465" 
d="M215 245l190 -85q19 -8 24.5 -14.5t5.5 -25.5v-100q0 -11 -7.5 -17t-22.5 2l-345 165q-15 8 -22.5 16.5t-7.5 23.5v80q0 15 7.5 23.5t22.5 16.5l345 165q15 8 22.5 2t7.5 -17v-100q0 -19 -5.5 -25.5t-24.5 -14.5l-190 -85v-10z" />
    <glyph glyph-name="equal" unicode="=" horiz-adv-x="400" 
d="M30 450q0 30 30 30h280q30 0 30 -30v-75q0 -30 -30 -30h-280q-30 0 -30 30v75zM30 245q0 30 30 30h280q30 0 30 -30v-75q0 -30 -30 -30h-280q-30 0 -30 30v75z" />
    <glyph glyph-name="greater" unicode="&#x3e;" horiz-adv-x="465" 
d="M250 255l-190 85q-19 8 -24.5 14.5t-5.5 25.5v100q0 11 7.5 17t22.5 -2l345 -165q15 -8 22.5 -16.5t7.5 -23.5v-80q0 -15 -7.5 -23.5t-22.5 -16.5l-345 -165q-15 -8 -22.5 -2t-7.5 17v100q0 19 5.5 25.5t24.5 14.5l190 85v10z" />
    <glyph glyph-name="question" unicode="?" horiz-adv-x="555" 
d="M25 560q0 150 150 150h195q150 0 150 -150v-140q0 -150 -150 -150h-45l-5 -20q-4 -15 -12 -22.5t-23 -7.5h-50q-31 0 -35 30l-20 120v10q0 30 30 30h90q40 0 40 40v65q0 40 -40 40h-55q-40 0 -40 -40q0 -30 -30 -30h-120q-30 0 -30 30v45zM185 125q0 30 30 30h90
q30 0 30 -30v-95q0 -30 -30 -30h-90q-30 0 -30 30v95z" />
    <glyph glyph-name="at" unicode="@" horiz-adv-x="915" 
d="M450 340q-30 0 -30 -30v-100q0 -30 30 -30h45v160h-45zM500 440q0 30 30 30h75q30 0 30 -30v-260h30q40 0 40 40v290q0 26 -17 43t-43 17h-370q-26 0 -43 -17t-17 -43v-500q0 -26 17 -43t43 -17h445q30 0 30 -30v-70q0 -30 -30 -30h-500q-150 0 -150 150v580
q0 150 150 150h480q150 0 150 -150v-350q0 -150 -150 -150h-125q-23 0 -35.5 6t-17.5 14q-7 9 -7 20h-10q-2 -11 -8 -20q-6 -8 -17.5 -14t-34.5 -6h-60q-45 0 -72.5 27.5t-27.5 72.5v220q0 45 27.5 72.5t72.5 27.5h45q23 0 34.5 -6t17.5 -14q6 -9 8 -20h10v10z" />
    <glyph glyph-name="A" unicode="A" horiz-adv-x="636" 
d="M188 30q-5 -15 -13 -22.5t-27 -7.5h-135q-24 0 -15 30l200 640q9 30 40 30h160q31 0 40 -30l200 -640q9 -30 -15 -30h-135q-19 0 -27 7.5t-13 22.5l-30 105h-200zM263 290h110l-50 185h-10z" />
    <glyph glyph-name="B" unicode="B" horiz-adv-x="655" 
d="M585 470q0 -29 -11 -46t-24 -27q-16 -11 -35 -17v-10q29 -6 52 -21q20 -13 36.5 -36.5t16.5 -62.5v-100q0 -150 -150 -150h-375q-30 0 -30 30v640q0 30 30 30h340q150 0 150 -150v-80zM245 290v-130h155q40 0 40 40v50q0 40 -40 40h-155zM245 540v-105h120q40 0 40 40v25
q0 40 -40 40h-120z" />
    <glyph glyph-name="C" unicode="C" horiz-adv-x="675" 
d="M630 485q0 -30 -30 -30h-120q-30 0 -30 30v25q0 40 -40 40h-130q-40 0 -40 -40v-320q0 -40 40 -40h130q40 0 40 40v25q0 30 30 30h120q30 0 30 -30v-75q0 -150 -150 -150h-270q-150 0 -150 150v420q0 150 150 150h270q150 0 150 -150v-75z" />
    <glyph glyph-name="D" unicode="D" horiz-adv-x="700" 
d="M65 670q0 30 30 30h395q150 0 150 -150v-400q0 -150 -150 -150h-395q-30 0 -30 30v640zM245 540v-380h175q40 0 40 40v300q0 40 -40 40h-175z" />
    <glyph glyph-name="E" unicode="E" horiz-adv-x="605" 
d="M65 670q0 30 30 30h445q30 0 30 -30v-100q0 -30 -30 -30h-295v-105h220q30 0 30 -30v-100q0 -30 -30 -30h-220v-115h305q30 0 30 -30v-100q0 -30 -30 -30h-455q-30 0 -30 30v640z" />
    <glyph glyph-name="F" unicode="F" horiz-adv-x="590" 
d="M65 670q0 30 30 30h450q30 0 30 -30v-100q0 -30 -30 -30h-300v-135h195q30 0 30 -30v-100q0 -30 -30 -30h-195v-215q0 -30 -30 -30h-120q-30 0 -30 30v640z" />
    <glyph glyph-name="G" unicode="G" horiz-adv-x="685" 
d="M630 140q0 -150 -150 -150h-270q-150 0 -150 150v420q0 150 150 150h270q150 0 150 -150v-75q0 -30 -30 -30h-120q-30 0 -30 30v25q0 40 -40 40h-130q-40 0 -40 -40v-320q0 -40 40 -40h130q40 0 40 40v55h-80q-30 0 -30 30v90q0 30 30 30h230q30 0 30 -30v-225z" />
    <glyph glyph-name="H" unicode="H" horiz-adv-x="695" 
d="M450 265h-205v-235q0 -30 -30 -30h-120q-30 0 -30 30v640q0 30 30 30h120q30 0 30 -30v-245h205v245q0 30 30 30h120q30 0 30 -30v-640q0 -30 -30 -30h-120q-30 0 -30 30v235z" />
    <glyph glyph-name="I" unicode="I" horiz-adv-x="310" 
d="M65 670q0 30 30 30h120q30 0 30 -30v-640q0 -30 -30 -30h-120q-30 0 -30 30v640z" />
    <glyph glyph-name="J" unicode="J" horiz-adv-x="615" 
d="M205 190q0 -40 40 -40h85q40 0 40 40v480q0 30 30 30h120q30 0 30 -30v-530q0 -150 -150 -150h-225q-150 0 -150 150v95q0 30 30 30h120q30 0 30 -30v-45z" />
    <glyph glyph-name="K" unicode="K" horiz-adv-x="634" 
d="M420 670q7 15 16.5 22.5t28.5 7.5h135q11 0 17 -7.5t-2 -22.5l-145 -300l160 -340q7 -15 1.5 -22.5t-16.5 -7.5h-135q-19 0 -28.5 7.5t-16.5 22.5l-115 257h-75v-257q0 -30 -30 -30h-120q-30 0 -30 30v640q0 30 30 30h120q30 0 30 -30v-225h75z" />
    <glyph glyph-name="L" unicode="L" horiz-adv-x="565" 
d="M65 670q0 30 30 30h120q30 0 30 -30v-510h285q30 0 30 -30v-100q0 -30 -30 -30h-435q-30 0 -30 30v640z" />
    <glyph glyph-name="M" unicode="M" horiz-adv-x="875" 
d="M405 0q-30 0 -40 30l-110 330h-10v-330q0 -30 -30 -30h-120q-30 0 -30 30v640q0 30 30 30h165q23 0 31.5 -7.5t13.5 -22.5l130 -380h5l130 380q5 15 13.5 22.5t31.5 7.5h165q30 0 30 -30v-640q0 -30 -30 -30h-120q-30 0 -30 30v330h-10l-110 -330q-11 -30 -40 -30h-65z
" />
    <glyph glyph-name="N" unicode="N" horiz-adv-x="710" 
d="M245 30q0 -30 -30 -30h-120q-30 0 -30 30v640q0 30 30 30h155q15 0 23.5 -7.5t16.5 -22.5l165 -345h10v345q0 30 30 30h120q30 0 30 -30v-640q0 -30 -30 -30h-155q-15 0 -23.5 7.5t-16.5 22.5l-165 345h-10v-345z" />
    <glyph glyph-name="O" unicode="O" horiz-adv-x="700" 
d="M460 510q0 40 -40 40h-140q-40 0 -40 -40v-320q0 -40 40 -40h140q40 0 40 40v320zM640 140q0 -150 -150 -150h-280q-150 0 -150 150v420q0 150 150 150h280q150 0 150 -150v-420z" />
    <glyph glyph-name="P" unicode="P" horiz-adv-x="660" 
d="M65 670q0 30 30 30h370q150 0 150 -150v-200q0 -150 -150 -150h-220v-170q0 -30 -30 -30h-120q-30 0 -30 30v640zM245 540v-180h150q40 0 40 40v100q0 40 -40 40h-150z" />
    <glyph glyph-name="Q" unicode="Q" horiz-adv-x="698" 
d="M520 -10h-310q-150 0 -150 150v420q0 150 150 150h280q150 0 150 -150v-455l80 -90q8 -8 8 -20t-8 -20l-80 -75q-8 -8 -20 -8t-20 8zM460 510q0 40 -40 40h-140q-40 0 -40 -40v-320q0 -40 40 -40h140q40 0 40 40v320z" />
    <glyph glyph-name="R" unicode="R" horiz-adv-x="670" 
d="M65 670q0 30 30 30h370q150 0 150 -150v-190q0 -48 -13.5 -75.5t-29.5 -41.5q-18 -17 -42 -23l90 -190q8 -15 2 -22.5t-17 -7.5h-130q-19 0 -28.5 7.5t-16.5 22.5l-80 180h-105v-180q0 -30 -30 -30h-120q-30 0 -30 30v640zM245 540v-170h150q40 0 40 40v90q0 40 -40 40
h-150z" />
    <glyph glyph-name="S" unicode="S" horiz-adv-x="625" 
d="M410 200q0 19 -5.5 25.5t-24.5 14.5l-220 90q-27 11 -48 24t-34.5 30.5t-20.5 40.5t-7 55v80q0 150 150 150h230q150 0 150 -150v-75q0 -30 -30 -30h-120q-30 0 -30 30v25q0 40 -40 40h-90q-40 0 -40 -40v-10q0 -19 5.5 -25.5t24.5 -14.5l220 -90q28 -11 48.5 -24
t34 -30.5t20.5 -40.5t7 -55v-80q0 -150 -150 -150h-255q-150 0 -150 150v75q0 30 30 30h120q30 0 30 -30v-25q0 -40 40 -40h115q40 0 40 40v10z" />
    <glyph glyph-name="T" unicode="T" horiz-adv-x="560" 
d="M10 670q0 30 30 30h480q30 0 30 -30v-100q0 -30 -30 -30h-150v-510q0 -30 -30 -30h-120q-30 0 -30 30v510h-150q-30 0 -30 30v100z" />
    <glyph glyph-name="U" unicode="U" horiz-adv-x="695" 
d="M245 190q0 -40 40 -40h125q40 0 40 40v480q0 30 30 30h120q30 0 30 -30v-530q0 -150 -150 -150h-265q-150 0 -150 150v530q0 30 30 30h120q30 0 30 -30v-480z" />
    <glyph glyph-name="V" unicode="V" horiz-adv-x="616" 
d="M263 0q-30 0 -40 30l-225 640q-5 15 -0.5 22.5t15.5 7.5h135q15 0 22.5 -7.5t12.5 -22.5l120 -360h10l120 360q5 15 12.5 22.5t22.5 7.5h135q25 0 15 -30l-225 -640q-11 -30 -40 -30h-90z" />
    <glyph glyph-name="W" unicode="W" horiz-adv-x="844" 
d="M462 700q19 0 27.5 -7.5t12.5 -22.5l70 -305h10l70 305q4 15 12.5 22.5t27.5 7.5h130q22 0 15 -30l-165 -640q-4 -15 -12.5 -22.5t-27.5 -7.5h-80q-19 0 -27.5 7.5t-12.5 22.5l-85 367h-10l-85 -367q-4 -15 -12.5 -22.5t-27.5 -7.5h-80q-19 0 -27.5 7.5t-12.5 22.5
l-165 640q-8 30 15 30h130q19 0 27.5 -7.5t12.5 -22.5l70 -305h10l70 305q4 15 12.5 22.5t27.5 7.5h80z" />
    <glyph glyph-name="X" unicode="X" horiz-adv-x="600" 
d="M305 512l80 158q8 15 16.5 22.5t23.5 7.5h140q11 0 17 -7.5t-2 -22.5l-165 -300l180 -340q8 -15 2 -22.5t-17 -7.5h-135q-19 0 -28 7.5t-17 22.5l-95 190h-10l-95 -190q-8 -15 -17 -22.5t-28 -7.5h-135q-11 0 -17 7.5t2 22.5l180 340l-165 300q-8 15 -2 22.5t17 7.5h140
q15 0 23.5 -7.5t16.5 -22.5l80 -158h10z" />
    <glyph glyph-name="Y" unicode="Y" horiz-adv-x="618" 
d="M249 0q-30 0 -30 30v210l-220 430q-7 14 -1.5 22t16.5 8h135q15 0 24 -7.5t16 -22.5l115 -240h10l115 240q7 15 16 22.5t24 7.5h135q11 0 16.5 -8t-1.5 -22l-220 -430v-210q0 -30 -30 -30h-120z" />
    <glyph glyph-name="Z" unicode="Z" horiz-adv-x="600" 
d="M250 160h285q30 0 30 -30v-100q0 -30 -30 -30h-470q-30 0 -30 30v115q0 13 1 22t4 15.5t7.5 13t12.5 14.5l280 320v10h-265q-30 0 -30 30v100q0 30 30 30h450q30 0 30 -30v-115q0 -26 -5 -37.5t-20 -27.5l-280 -320v-10z" />
    <glyph glyph-name="bracketleft" unicode="[" horiz-adv-x="355" 
d="M70 700q0 30 30 30h200q30 0 30 -30v-90q0 -30 -30 -30h-60v-600h60q30 0 30 -30v-90q0 -30 -30 -30h-200q-30 0 -30 30v840z" />
    <glyph glyph-name="backslash" unicode="\" horiz-adv-x="399" 
d="M387 30q5 -15 -2 -22.5t-18 -7.5h-130q-15 0 -22.5 7.5t-12.5 22.5l-190 640q-5 15 2 22.5t18 7.5h130q15 0 22.5 -7.5t12.5 -22.5z" />
    <glyph glyph-name="bracketright" unicode="]" horiz-adv-x="355" 
d="M285 -140q0 -30 -30 -30h-200q-30 0 -30 30v90q0 30 30 30h60v600h-60q-30 0 -30 30v90q0 30 30 30h200q30 0 30 -30v-840z" />
    <glyph glyph-name="asciicircum" unicode="^" horiz-adv-x="478" 
d="M284 700q28 0 40 -30l125 -310q6 -15 1 -22.5t-16 -7.5h-95q-28 0 -40 30l-55 145h-10l-55 -145q-12 -30 -40 -30h-95q-11 0 -16 7.5t1 22.5l125 310q12 30 40 30h90z" />
    <glyph glyph-name="underscore" unicode="_" horiz-adv-x="355" 
d="M0 -100q0 30 30 30h295q30 0 30 -30v-85q0 -30 -30 -30h-295q-30 0 -30 30v85z" />
    <glyph glyph-name="grave" unicode="`" horiz-adv-x="257" 
d="M35 670q-8 15 -2 22.5t17 7.5h100q15 0 22.5 -7.5t12.5 -22.5l40 -125q5 -15 -2 -22.5t-18 -7.5h-60q-15 0 -23.5 7.5t-16.5 22.5z" />
    <glyph glyph-name="a" unicode="a" 
d="M255 110q19 0 32 13t13 32v40h-70q-15 0 -25 -10t-10 -25v-15q0 -15 10 -25t25 -10h25zM455 30q0 -30 -30 -30h-95q-30 0 -30 30v15h-10q-3 -16 -13 -28q-8 -11 -23 -19t-39 -8h-50q-57 0 -91 34t-34 91v70q0 57 34 91t91 34h135v45q0 15 -10 25t-25 10h-35
q-25 0 -25 -25q0 -30 -30 -30h-85q-30 0 -30 30v30q0 57 34 91t91 34h145q57 0 91 -34t34 -91v-365z" />
    <glyph glyph-name="b" unicode="b" horiz-adv-x="525" 
d="M355 510q57 0 91 -34t34 -91v-260q0 -57 -34 -91t-91 -34h-270q-30 0 -30 30v640q0 30 30 30h95q30 0 30 -30v-160h145zM210 140h80q15 0 25 10t10 25v160q0 15 -10 25t-25 10h-80v-230z" />
    <glyph glyph-name="c" unicode="c" 
d="M470 325q0 -30 -30 -30h-95q-30 0 -30 30v20q0 15 -10 25t-25 10h-45q-15 0 -25 -10t-10 -25v-180q0 -15 10 -25t25 -10h45q15 0 25 10t10 25v20q0 30 30 30h95q30 0 30 -30v-70q0 -57 -34 -91t-91 -34h-175q-57 0 -91 34t-34 91v280q0 57 34 91t91 34h175q57 0 91 -34
t34 -91v-70z" />
    <glyph glyph-name="d" unicode="d" horiz-adv-x="525" 
d="M315 510v160q0 30 30 30h95q30 0 30 -30v-640q0 -30 -30 -30h-95q-30 0 -30 30v15h-10q-3 -16 -13 -28q-8 -11 -23 -19t-39 -8h-60q-57 0 -91 34t-34 91v270q0 57 34 91t91 34h145zM315 370h-80q-15 0 -25 -10t-10 -25v-170q0 -15 10 -25t25 -10h45q15 0 25 10t10 25v205
z" />
    <glyph glyph-name="e" unicode="e" 
d="M465 235q0 -30 -30 -30h-235v-55q0 -15 10 -25t25 -10h55q25 0 25 25q0 30 30 30h85q30 0 30 -30v-25q0 -57 -34 -91t-91 -34h-165q-57 0 -91 34t-34 91v280q0 57 34 91t91 34h170q57 0 91 -34t34 -91v-160zM200 315h110v35q0 15 -10 25t-25 10h-40q-15 0 -25 -10
t-10 -25v-35z" />
    <glyph glyph-name="f" unicode="f" horiz-adv-x="340" 
d="M25 450q0 30 30 30h25v95q0 57 34 91t91 34h95q30 0 30 -30v-80q0 -30 -30 -30h-30q-15 0 -25 -10t-10 -25v-45h50q30 0 30 -30v-80q0 -30 -30 -30h-50v-310q0 -30 -30 -30h-95q-30 0 -30 30v310h-25q-30 0 -30 30v80z" />
    <glyph glyph-name="g" unicode="g" horiz-adv-x="525" 
d="M315 45h-145q-57 0 -91 34t-34 91v225q0 57 34 91t91 34h60q24 0 39 -8.5t23 -19.5q10 -12 13 -27h10v15q0 30 30 30h95q30 0 30 -30v-555q0 -57 -34 -91t-91 -34h-165q-57 0 -91 34t-34 91v50q0 30 30 30h95q14 0 22 -7.5t8 -22.5v-5q0 -15 10 -25t25 -10h35q15 0 25 10
t10 25v75zM315 345q0 15 -10 25t-25 10h-45q-15 0 -25 -10t-10 -25v-125q0 -15 10 -25t25 -10h80v160z" />
    <glyph glyph-name="h" unicode="h" horiz-adv-x="535" 
d="M480 30q0 -30 -30 -30h-95q-30 0 -30 30v305q0 15 -10 25t-25 10h-80v-340q0 -30 -30 -30h-95q-30 0 -30 30v640q0 30 30 30h95q30 0 30 -30v-160h145q57 0 91 -34t34 -91v-355z" />
    <glyph glyph-name="i" unicode="i" horiz-adv-x="265" 
d="M55 470q0 30 30 30h95q30 0 30 -30v-440q0 -30 -30 -30h-95q-30 0 -30 30v440zM55 680q0 30 30 30h95q30 0 30 -30v-90q0 -30 -30 -30h-95q-30 0 -30 30v90z" />
    <glyph glyph-name="j" unicode="j" horiz-adv-x="270" 
d="M-5 -200q-30 0 -30 30v80q0 30 30 30h30q15 0 25 10t10 25v495q0 30 30 30h95q30 0 30 -30v-545q0 -57 -34 -91t-91 -34h-95zM60 680q0 30 30 30h95q30 0 30 -30v-90q0 -30 -30 -30h-95q-30 0 -30 30v90z" />
    <glyph glyph-name="k" unicode="k" horiz-adv-x="484" 
d="M55 670q0 30 30 30h95q30 0 30 -30v-335h40l60 145q6 15 13.5 22.5t26.5 7.5h105q11 0 16.5 -7.5t-1.5 -22.5l-95 -210l105 -240q7 -15 1.5 -22.5t-16.5 -7.5h-105q-19 0 -26.5 7.5t-13.5 22.5l-70 165h-40v-165q0 -30 -30 -30h-95q-30 0 -30 30v640z" />
    <glyph glyph-name="l" unicode="l" horiz-adv-x="265" 
d="M55 670q0 30 30 30h95q30 0 30 -30v-640q0 -30 -30 -30h-95q-30 0 -30 30v640z" />
    <glyph glyph-name="m" unicode="m" horiz-adv-x="740" 
d="M450 30q0 -30 -30 -30h-95q-30 0 -30 30v315q0 15 -10 25t-25 10h-15q-15 0 -25 -10t-10 -25v-315q0 -30 -30 -30h-95q-30 0 -30 30v450q0 30 30 30h95q30 0 30 -30v-15h10q3 15 13 27q8 11 22.5 19.5t39.5 8.5h50q24 0 39 -8.5t23 -19.5q10 -12 13 -27h10q3 15 13 27
q8 11 22.5 19.5t39.5 8.5h55q57 0 91 -34t34 -91v-365q0 -30 -30 -30h-95q-30 0 -30 30v315q0 15 -10 25t-25 10h-10q-15 0 -25 -10t-10 -25v-315z" />
    <glyph glyph-name="n" unicode="n" horiz-adv-x="535" 
d="M480 30q0 -30 -30 -30h-95q-30 0 -30 30v315q0 15 -10 25t-25 10h-45q-15 0 -25 -10t-10 -25v-315q0 -30 -30 -30h-95q-30 0 -30 30v450q0 30 30 30h95q30 0 30 -30v-15h10q3 15 13 27q8 11 22.5 19.5t39.5 8.5h60q57 0 91 -34t34 -91v-365z" />
    <glyph glyph-name="o" unicode="o" horiz-adv-x="525" 
d="M45 395q0 57 34 91t91 34h185q57 0 91 -34t34 -91v-280q0 -57 -34 -91t-91 -34h-185q-57 0 -91 34t-34 91v280zM200 165q0 -15 10 -25t25 -10h55q15 0 25 10t10 25v180q0 15 -10 25t-25 10h-55q-15 0 -25 -10t-10 -25v-180z" />
    <glyph glyph-name="p" unicode="p" horiz-adv-x="525" 
d="M210 0v-160q0 -30 -30 -30h-95q-30 0 -30 30v640q0 30 30 30h95q30 0 30 -30v-15h10q3 15 13 27q8 11 22.5 19.5t39.5 8.5h60q57 0 91 -34t34 -91v-270q0 -57 -34 -91t-91 -34h-145zM210 140h80q15 0 25 10t10 25v170q0 15 -10 25t-25 10h-45q-15 0 -25 -10t-10 -25v-205
z" />
    <glyph glyph-name="q" unicode="q" horiz-adv-x="525" 
d="M170 0q-57 0 -91 34t-34 91v260q0 57 34 91t91 34h270q30 0 30 -30v-640q0 -30 -30 -30h-95q-30 0 -30 30v160h-145zM315 370h-80q-15 0 -25 -10t-10 -25v-160q0 -15 10 -25t25 -10h80v230z" />
    <glyph glyph-name="r" unicode="r" horiz-adv-x="355" 
d="M345 400q0 -30 -30 -30h-70q-15 0 -25 -10t-10 -25v-305q0 -30 -30 -30h-95q-30 0 -30 30v450q0 30 30 30h95q30 0 30 -30v-15h10q3 15 13 27q8 11 22.5 19.5t39.5 8.5h20q30 0 30 -30v-90z" />
    <glyph glyph-name="s" unicode="s" horiz-adv-x="475" 
d="M265 115q25 0 25 25v10q0 22 -35 35l-125 45q-42 15 -66 42.5t-24 72.5v50q0 57 34 91t91 34h140q57 0 91 -34t34 -91v-35q0 -30 -30 -30h-85q-30 0 -30 30q0 15 -10 25t-25 10h-30q-25 0 -25 -25v-10q0 -22 35 -35l125 -45q42 -15 66 -42.5t24 -72.5v-50q0 -57 -34 -91
t-91 -34h-165q-57 0 -91 34t-34 91v35q0 30 30 30h90q30 0 30 -30v-5q0 -30 30 -30h55z" />
    <glyph glyph-name="t" unicode="t" horiz-adv-x="355" 
d="M25 480q0 30 30 30h25v90q0 30 30 30h95q30 0 30 -30v-90h50q30 0 30 -30v-80q0 -30 -30 -30h-50v-195q0 -15 10 -25t25 -10h30q30 0 30 -30v-80q0 -30 -30 -30h-95q-57 0 -91 34t-34 91v245h-25q-30 0 -30 30v80z" />
    <glyph glyph-name="u" unicode="u" horiz-adv-x="535" 
d="M55 480q0 30 30 30h95q30 0 30 -30v-315q0 -15 10 -25t25 -10h45q15 0 25 10t10 25v315q0 30 30 30h95q30 0 30 -30v-450q0 -30 -30 -30h-95q-30 0 -30 30v15h-10q-3 -16 -13 -28q-8 -11 -23 -19t-39 -8h-60q-57 0 -91 34t-34 91v365z" />
    <glyph glyph-name="v" unicode="v" horiz-adv-x="466" 
d="M193 0q-15 0 -22.5 7.5t-12.5 22.5l-155 450q-5 15 0.5 22.5t14.5 7.5h110q31 0 40 -30l60 -220h10l60 220q9 30 40 30h110q10 0 15 -7.5t0 -22.5l-155 -450q-5 -15 -12.5 -22.5t-22.5 -7.5h-80z" />
    <glyph glyph-name="w" unicode="w" horiz-adv-x="644" 
d="M347 510q19 0 27.5 -7.5t12.5 -22.5l40 -190h10l40 190q3 15 12 22.5t28 7.5h105q11 0 17.5 -7.5t2.5 -22.5l-115 -450q-4 -15 -12.5 -22.5t-27.5 -7.5h-65q-19 0 -27.5 7.5t-12.5 22.5l-55 240h-10l-55 -240q-4 -15 -12.5 -22.5t-27.5 -7.5h-65q-19 0 -27.5 7.5
t-12.5 22.5l-115 450q-4 15 2.5 22.5t17.5 7.5h105q19 0 28 -7.5t12 -22.5l40 -190h10l40 190q3 15 12 22.5t28 7.5h50z" />
    <glyph glyph-name="x" unicode="x" horiz-adv-x="460" 
d="M235 375l40 105q12 30 40 30h110q11 0 16.5 -7.5t-1.5 -22.5l-100 -215l115 -235q8 -15 3 -22.5t-13 -7.5h-120q-28 0 -40 30l-50 125h-10l-50 -125q-12 -30 -40 -30h-120q-8 0 -13 7.5t3 22.5l115 235l-100 215q-7 15 -1.5 22.5t16.5 7.5h110q28 0 40 -30l40 -105h10z
" />
    <glyph glyph-name="y" unicode="y" horiz-adv-x="464" 
d="M232 235h10l60 245q7 30 35 30h105q11 0 18 -7.5t2 -22.5l-165 -525q-12 -39 -27 -67t-36.5 -45t-51 -25t-70.5 -8h-25q-30 0 -30 30v80q0 30 30 30h20q19 0 29 7.5t15 17.5q5 11 6 25l-155 480q-5 15 2 22.5t18 7.5h107q30 0 38 -30z" />
    <glyph glyph-name="z" unicode="z" horiz-adv-x="455" 
d="M225 370h-155q-30 0 -30 30v80q0 30 30 30h320q30 0 30 -30v-90q0 -30 -7 -42t-18 -23l-170 -175v-10h170q30 0 30 -30v-80q0 -30 -30 -30h-335q-30 0 -30 30v90q0 30 7 42t18 23l170 175v10z" />
    <glyph glyph-name="braceleft" unicode="{" horiz-adv-x="390" 
d="M215 275q18 -3 32 -14q12 -10 22.5 -28.5t10.5 -52.5v-140q0 -26 17 -43t43 -17q30 0 30 -30v-90q0 -30 -30 -30h-60q-83 0 -126.5 43.5t-43.5 126.5v150q0 55 -55 55q-30 0 -30 30v90q0 30 30 30q55 0 55 55v150q0 83 43.5 126.5t126.5 43.5h60q30 0 30 -30v-90
q0 -30 -30 -30q-26 0 -43 -17t-17 -43v-140q0 -34 -10.5 -53t-22.5 -28q-14 -11 -32 -14v-10z" />
    <glyph glyph-name="bar" unicode="|" horiz-adv-x="330" 
d="M80 670q0 30 30 30h110q30 0 30 -30v-830q0 -30 -30 -30h-110q-30 0 -30 30v830z" />
    <glyph glyph-name="braceright" unicode="}" horiz-adv-x="390" 
d="M175 285q-19 3 -33 14q-12 9 -22 28t-10 53v140q0 26 -17 43t-43 17q-30 0 -30 30v90q0 30 30 30h60q83 0 126.5 -43.5t43.5 -126.5v-150q0 -55 55 -55q30 0 30 -30v-90q0 -30 -30 -30q-55 0 -55 -55v-150q0 -83 -43.5 -126.5t-126.5 -43.5h-60q-30 0 -30 30v90
q0 30 30 30q26 0 43 17t17 43v140q0 34 10 52.5t22 28.5q14 11 33 14v10z" />
    <glyph glyph-name="asciitilde" unicode="~" horiz-adv-x="420" 
d="M390 290q0 -42 -21 -63.5t-59 -21.5q-24 0 -43.5 10t-35 22.5t-28 22.5t-23.5 10q-25 0 -25 -25v-10q0 -30 -30 -30h-65q-30 0 -30 30v115q0 42 21 63.5t59 21.5q24 0 43.5 -10t35 -22.5t28 -22.5t23.5 -10q25 0 25 25v10q0 30 30 30h65q30 0 30 -30v-115z" />
    <glyph glyph-name="nonbreakingspace" unicode="&#xa0;" horiz-adv-x="200" 
 />
    <glyph glyph-name="exclamdown" unicode="&#xa1;" horiz-adv-x="300" 
d="M225 385q0 -30 -30 -30h-90q-30 0 -30 30v95q0 30 30 30h90q30 0 30 -30v-95zM235 -160q0 -30 -30 -30h-110q-30 0 -30 30v250l25 170q4 30 35 30h50q30 0 35 -30l25 -170v-250z" />
    <glyph glyph-name="cent" unicode="&#xa2;" 
d="M170 -10q-57 0 -91 34t-34 91v280q0 57 34 91t91 34h10v40q0 30 30 30h95q30 0 30 -30v-40h10q57 0 91 -34t34 -91v-70q0 -30 -30 -30h-95q-30 0 -30 30v20q0 15 -10 25t-25 10h-45q-15 0 -25 -10t-10 -25v-180q0 -15 10 -25t25 -10h45q15 0 25 10t10 25v20q0 30 30 30
h95q30 0 30 -30v-70q0 -57 -34 -91t-91 -34h-10v-40q0 -30 -30 -30h-95q-30 0 -30 30v40h-10z" />
    <glyph glyph-name="sterling" unicode="&#xa3;" horiz-adv-x="500" 
d="M30 120q0 30 30 30h55v125h-20q-30 0 -30 30v90q0 30 30 30h20v135q0 140 140 140h120q30 0 30 -30v-90q0 -30 -30 -30h-55q-40 0 -40 -40v-85h60q30 0 30 -30v-90q0 -30 -30 -30h-60v-125h190q30 0 30 -30v-90q0 -30 -30 -30h-410q-30 0 -30 30v90z" />
    <glyph glyph-name="currency" unicode="&#xa4;" horiz-adv-x="640" 
d="M35 360q0 30 30 30h25v280q0 30 30 30h325q150 0 150 -150v-125q0 -150 -150 -150h-175v-40h210q30 0 30 -30v-55q0 -30 -30 -30h-210v-90q0 -30 -30 -30h-120q-30 0 -30 30v90h-25q-30 0 -30 30v55q0 30 30 30h25v40h-25q-30 0 -30 30v55zM270 540v-150h105q40 0 40 40
v70q0 40 -40 40h-105z" />
    <glyph glyph-name="yen" unicode="&#xa5;" horiz-adv-x="618" 
d="M249 0q-30 0 -30 30v70h-85q-30 0 -30 30v50q0 30 30 30h85v40h-85q-30 0 -30 30v50q0 30 30 30h30l-165 310q-7 14 -1.5 22t16.5 8h135q15 0 24 -7.5t16 -22.5l115 -240h10l115 240q7 15 16 22.5t24 7.5h135q11 0 16.5 -8t-1.5 -22l-165 -310h30q30 0 30 -30v-50
q0 -30 -30 -30h-85v-40h85q30 0 30 -30v-50q0 -30 -30 -30h-85v-70q0 -30 -30 -30h-120z" />
    <glyph glyph-name="brokenbar" unicode="&#xa6;" horiz-adv-x="330" 
d="M80 160q0 30 30 30h110q30 0 30 -30v-320q0 -30 -30 -30h-110q-30 0 -30 30v320zM80 670q0 30 30 30h110q30 0 30 -30v-320q0 -30 -30 -30h-110q-30 0 -30 30v320z" />
    <glyph glyph-name="section" unicode="&#xa7;" horiz-adv-x="535" 
d="M470 -75q0 -57 -34 -91t-91 -34h-160q-57 0 -91 34t-34 91v45q0 30 30 30h95q30 0 30 -30q0 -15 10 -25t25 -10h30q15 0 25 10t10 25v25q0 22 -35 35l-125 45q-42 16 -66 43t-24 72v80q0 32 9.5 53t20.5 34q13 15 30 23v10q-16 7 -28 19q-11 11 -19 28t-8 43v95
q0 57 34 91t91 34h140q57 0 91 -34t34 -91v-45q0 -30 -30 -30h-85q-30 0 -30 30q0 15 -10 25t-25 10h-20q-15 0 -25 -10t-10 -25v-25q0 -22 35 -35l125 -45q42 -15 66 -42.5t24 -72.5v-80q0 -32 -9.5 -53t-20.5 -34q-13 -15 -30 -23v-10q15 -7 27 -19q11 -11 19.5 -28
t8.5 -43v-95zM215 205q0 -24 35 -35l45 -15q8 3 15 9q5 5 10 13.5t5 22.5v95q0 24 -35 35l-45 15q-9 -3 -15 -9q-6 -5 -10.5 -14t-4.5 -22v-95z" />
    <glyph glyph-name="dieresis" unicode="&#xa8;" horiz-adv-x="385" 
d="M355 580q0 -30 -30 -30h-75q-30 0 -30 30v90q0 30 30 30h75q30 0 30 -30v-90zM165 580q0 -30 -30 -30h-75q-30 0 -30 30v90q0 30 30 30h75q30 0 30 -30v-90z" />
    <glyph glyph-name="copyright" unicode="&#xa9;" horiz-adv-x="780" 
d="M590 555q0 40 -40 40h-320q-40 0 -40 -40v-410q0 -40 40 -40h320q40 0 40 40v410zM715 145q0 -150 -150 -150h-350q-150 0 -150 150v410q0 150 150 150h350q150 0 150 -150v-410zM250 430q0 42 24 66t66 24h100q42 0 66 -24t24 -66v-20q0 -25 -25 -25h-65q-15 0 -15 15
q0 20 -20 20h-25q-20 0 -20 -20v-95q0 -20 20 -20h25q20 0 20 20q0 15 15 15h65q25 0 25 -25v-20q0 -42 -24 -66t-66 -24h-100q-42 0 -66 24t-24 66v155z" />
    <glyph glyph-name="ordfeminine" unicode="&#xaa;" horiz-adv-x="355" 
d="M200 560v25q0 25 -25 25q-11 0 -15.5 -5.5t-7 -12t-7 -12t-15.5 -5.5h-60q-20 0 -20 20q0 105 105 105h55q105 0 105 -105v-215q0 -20 -20 -20h-75q-20 0 -20 20v12h-5q-3 -9 -9 -16q-6 -6 -16.5 -11t-29.5 -5h-20q-45 0 -65 20t-20 65v30q0 45 20 65t65 20h80zM200 490
h-25q-25 0 -25 -25t25 -25t25 25v25z" />
    <glyph glyph-name="guillemotleft" unicode="&#xab;" horiz-adv-x="515" 
d="M125 445q8 15 16.5 22.5t23.5 7.5h100q11 0 17 -7.5t-2 -22.5l-100 -190l100 -190q8 -15 2 -22.5t-17 -7.5h-100q-15 0 -23.5 7.5t-16.5 22.5l-100 190zM330 445q8 15 16.5 22.5t23.5 7.5h100q11 0 17 -7.5t-2 -22.5l-100 -190l100 -190q8 -15 2 -22.5t-17 -7.5h-100
q-15 0 -23.5 7.5t-16.5 22.5l-100 190z" />
    <glyph glyph-name="logicalnot" unicode="&#xac;" horiz-adv-x="440" 
d="M255 295h-195q-30 0 -30 30v80q0 30 30 30h320q30 0 30 -30v-175q0 -30 -30 -30h-95q-30 0 -30 30v65z" />
    <glyph glyph-name="uni00AD" unicode="&#xad;" horiz-adv-x="405" 
d="M25 355q0 30 30 30h295q30 0 30 -30v-85q0 -30 -30 -30h-295q-30 0 -30 30v85z" />
    <glyph glyph-name="registered" unicode="&#xae;" horiz-adv-x="780" 
d="M440 520q42 0 66 -24t24 -66v-60q0 -23 -6 -37.5t-14 -22.5q-9 -10 -20 -15l45 -85q6 -11 2 -18t-12 -7h-70q-15 0 -22 5t-13 20l-30 70h-25v-70q0 -25 -25 -25h-60q-25 0 -25 25v285q0 25 25 25h160zM420 405q0 25 -25 25h-30v-60h30q25 0 25 25v10zM590 555
q0 40 -40 40h-320q-40 0 -40 -40v-410q0 -40 40 -40h320q40 0 40 40v410zM715 145q0 -150 -150 -150h-350q-150 0 -150 150v410q0 150 150 150h350q150 0 150 -150v-410z" />
    <glyph glyph-name="macron" unicode="&#xaf;" horiz-adv-x="335" 
d="M30 670q0 30 30 30h215q30 0 30 -30v-60q0 -30 -30 -30h-215q-30 0 -30 30v60z" />
    <glyph glyph-name="degree" unicode="&#xb0;" horiz-adv-x="375" 
d="M340 480q0 -105 -105 -105h-95q-105 0 -105 105v115q0 105 105 105h95q105 0 105 -105v-115zM220 565q0 30 -30 30h-5q-30 0 -30 -30v-55q0 -30 30 -30h5q30 0 30 30v55z" />
    <glyph glyph-name="plusminus" unicode="&#xb1;" horiz-adv-x="450" 
d="M35 175q0 30 30 30h90v100h-95q-30 0 -30 30v80q0 30 30 30h95v110q0 30 30 30h80q30 0 30 -30v-110h95q30 0 30 -30v-80q0 -30 -30 -30h-95v-100h90q30 0 30 -30v-80q0 -30 -30 -30h-320q-30 0 -30 30v80z" />
    <glyph glyph-name="twosuperior" unicode="&#xb2;" horiz-adv-x="315" 
d="M25 695q0 105 105 105h55q105 0 105 -105q0 -23 -4 -38.5t-11.5 -27t-18.5 -21t-26 -18.5l-60 -37v-3h95q14 0 17 -6.5t3 -23.5v-40q0 -20 -20 -20h-220q-20 0 -20 20v65q0 15 4.5 21t15.5 14l105 70q15 10 20 17t5 18q0 25 -25 25q-11 0 -18 -6t-7 -14q0 -15 -20 -15
h-60q-20 0 -20 20z" />
    <glyph glyph-name="threesuperior" unicode="&#xb3;" horiz-adv-x="315" 
d="M20 565q0 20 20 20h60q20 0 20 -15q0 -8 7 -14t18 -6q25 0 25 25q0 30 -30 30h-25q-20 0 -20 20v20q0 15 4.5 21t15.5 14l35 25v5h-95q-20 0 -20 20v50q0 20 20 20h200q20 0 20 -20v-50q0 -13 -4 -18.5t-13 -11.5l-48 -35v-5q20 -5 37 -16q14 -10 26 -28.5t12 -50.5
q0 -105 -105 -105h-55q-105 0 -105 105z" />
    <glyph glyph-name="acute" unicode="&#xb4;" horiz-adv-x="257" 
d="M152 545q-8 -15 -16.5 -22.5t-23.5 -7.5h-60q-11 0 -18 7.5t-2 22.5l40 125q5 15 12.5 22.5t22.5 7.5h100q11 0 17 -7.5t-2 -22.5z" />
    <glyph glyph-name="mu" unicode="&#xb5;" horiz-adv-x="535" 
d="M55 480q0 30 30 30h95q30 0 30 -30v-315q0 -15 10 -25t25 -10h45q15 0 25 10t10 25v315q0 30 30 30h95q30 0 30 -30v-450q0 -30 -30 -30h-95q-30 0 -30 30v15h-10q-3 -16 -13 -28q-8 -11 -23 -19t-39 -8h-35v-150q0 -30 -30 -30h-90q-30 0 -30 30v640z" />
    <glyph glyph-name="paragraph" unicode="&#xb6;" horiz-adv-x="635" 
d="M150 -200q-30 0 -30 30v95q0 25 25 25h15q30 0 30 30v335q-145 0 -145 145v95q0 145 145 145h345q30 0 30 -30v-720q0 -150 -150 -150h-265zM370 -50q40 0 40 40v560h-65v-600h25z" />
    <glyph glyph-name="periodcentered" unicode="&#xb7;" horiz-adv-x="200" 
d="M26 345q0 30 30 30h90q30 0 30 -30v-95q0 -30 -30 -30h-90q-30 0 -30 30v95z" />
    <glyph glyph-name="cedilla" unicode="&#xb8;" horiz-adv-x="250" 
d="M40 -85q0 15 1.5 20.5t3.5 9.5l20 55h80l-20 -55q42 0 68.5 -26.5t26.5 -68.5v-35q0 -45 -27.5 -72.5t-72.5 -27.5h-70q-20 0 -20 20v45q0 20 20 20h55q25 0 25 25v10q0 25 -25 25h-45q-20 0 -20 20v35z" />
    <glyph glyph-name="onesuperior" unicode="&#xb9;" horiz-adv-x="250" 
d="M50 695q-20 0 -20 20v65q0 20 20 20h140q20 0 20 -20v-300q0 -20 -20 -20h-75q-20 0 -20 20v215h-45z" />
    <glyph glyph-name="ordmasculine" unicode="&#xba;" horiz-adv-x="350" 
d="M315 465q0 -105 -105 -105h-70q-105 0 -105 105v130q0 105 105 105h70q105 0 105 -105v-130zM200 570q0 25 -25 25t-25 -25v-80q0 -25 25 -25t25 25v80z" />
    <glyph glyph-name="guillemotright" unicode="&#xbb;" horiz-adv-x="515" 
d="M490 255l-100 -190q-8 -15 -16.5 -22.5t-23.5 -7.5h-100q-11 0 -17 7.5t2 22.5l100 190l-100 190q-8 15 -2 22.5t17 7.5h100q15 0 23.5 -7.5t16.5 -22.5zM285 255l-100 -190q-8 -15 -16.5 -22.5t-23.5 -7.5h-100q-11 0 -17 7.5t2 22.5l100 190l-100 190q-8 15 -2 22.5
t17 7.5h100q15 0 23.5 -7.5t16.5 -22.5z" />
    <glyph glyph-name="onequarter" unicode="&#xbc;" horiz-adv-x="710" 
d="M380 670q12 30 40 30h105q11 0 16 -7.5t-1 -22.5l-250 -640q-12 -30 -40 -30h-105q-11 0 -16 7.5t1 22.5zM41 596q-20 0 -20 20v65q0 20 20 20h140q20 0 20 -20v-300q0 -20 -20 -20h-75q-20 0 -20 20v215h-45zM495 321q6 11 13.5 15.5t26.5 4.5h95q20 0 20 -20v-160h5
q20 0 20 -20v-50q0 -20 -20 -20h-5v-50q0 -20 -20 -20h-75q-20 0 -20 20v50h-110q-20 0 -20 20v45q0 22 4.5 30.5t10.5 19.5zM540 161v70h-5l-35 -65v-5h40z" />
    <glyph glyph-name="onehalf" unicode="&#xbd;" horiz-adv-x="730" 
d="M380 670q12 30 40 30h105q11 0 16 -7.5t-1 -22.5l-250 -640q-12 -30 -40 -30h-105q-11 0 -16 7.5t1 22.5zM41 596q-20 0 -20 20v65q0 20 20 20h140q20 0 20 -20v-300q0 -20 -20 -20h-75q-20 0 -20 20v215h-45zM425 236q0 105 105 105h55q105 0 105 -105q0 -23 -4 -38.5
t-11.5 -27t-18.5 -21t-26 -18.5l-60 -37v-3h95q14 0 17 -6.5t3 -23.5v-40q0 -20 -20 -20h-220q-20 0 -20 20v65q0 15 4.5 21t15.5 14l105 70q15 10 20 17t5 18q0 25 -25 25q-11 0 -18 -6t-7 -14q0 -15 -20 -15h-60q-20 0 -20 20z" />
    <glyph glyph-name="threequarters" unicode="&#xbe;" horiz-adv-x="755" 
d="M425 670q12 30 40 30h105q11 0 16 -7.5t-1 -22.5l-250 -640q-12 -30 -40 -30h-105q-11 0 -16 7.5t1 22.5zM20 466q0 20 20 20h60q20 0 20 -15q0 -8 7 -14t18 -6q25 0 25 25q0 30 -30 30h-25q-20 0 -20 20v20q0 15 4.5 21t15.5 14l35 25v5h-95q-20 0 -20 20v50q0 20 20 20
h200q20 0 20 -20v-50q0 -13 -4 -18.5t-13 -11.5l-48 -35v-5q20 -5 37 -16q14 -10 26 -28.5t12 -50.5q0 -105 -105 -105h-55q-105 0 -105 105zM540 321q6 11 13.5 15.5t26.5 4.5h95q20 0 20 -20v-160h5q20 0 20 -20v-50q0 -20 -20 -20h-5v-50q0 -20 -20 -20h-75q-20 0 -20 20
v50h-110q-20 0 -20 20v45q0 22 4.5 30.5t10.5 19.5zM585 161v70h-5l-35 -65v-5h40z" />
    <glyph glyph-name="questiondown" unicode="&#xbf;" horiz-adv-x="540" 
d="M530 -50q0 -150 -150 -150h-195q-150 0 -150 150v140q0 150 150 150h45l5 20q7 30 35 30h50q30 0 35 -30l20 -120v-10q0 -30 -30 -30h-90q-40 0 -40 -40v-65q0 -40 40 -40h55q40 0 40 40q0 30 30 30h120q30 0 30 -30v-45zM370 385q0 -30 -30 -30h-90q-30 0 -30 30v95
q0 30 30 30h90q30 0 30 -30v-95z" />
    <glyph glyph-name="Agrave" unicode="&#xc0;" horiz-adv-x="636" 
d="M188 30q-5 -15 -13 -22.5t-27 -7.5h-135q-24 0 -15 30l200 640q9 30 40 30h160q31 0 40 -30l200 -640q9 -30 -15 -30h-135q-19 0 -27 7.5t-13 22.5l-30 105h-200zM263 290h110l-50 185h-10zM178 925q-8 15 -2 22.5t17 7.5h100q15 0 22.5 -7.5t12.5 -22.5l40 -125
q5 -15 -2 -22.5t-18 -7.5h-60q-15 0 -23.5 7.5t-16.5 22.5z" />
    <glyph glyph-name="Aacute" unicode="&#xc1;" horiz-adv-x="636" 
d="M188 30q-5 -15 -13 -22.5t-27 -7.5h-135q-24 0 -15 30l200 640q9 30 40 30h160q31 0 40 -30l200 -640q9 -30 -15 -30h-135q-19 0 -27 7.5t-13 22.5l-30 105h-200zM263 290h110l-50 185h-10zM383 800q-8 -15 -16.5 -22.5t-23.5 -7.5h-60q-11 0 -18 7.5t-2 22.5l40 125
q5 15 12.5 22.5t22.5 7.5h100q11 0 17 -7.5t-2 -22.5z" />
    <glyph glyph-name="Acircumflex" unicode="&#xc2;" horiz-adv-x="636" 
d="M188 30q-5 -15 -13 -22.5t-27 -7.5h-135q-24 0 -15 30l200 640q9 30 40 30h160q31 0 40 -30l200 -640q9 -30 -15 -30h-135q-19 0 -27 7.5t-13 22.5l-30 105h-200zM263 290h110l-50 185h-10zM316 850l-25 -50q-8 -15 -16.5 -22.5t-23.5 -7.5h-80q-11 0 -17 9t2 21l80 125
q12 19 18.5 24.5t21.5 5.5h85q15 0 21.5 -5.5t18.5 -24.5l80 -125q8 -12 2 -21t-17 -9h-80q-15 0 -23.5 7.5t-16.5 22.5l-25 50h-5z" />
    <glyph glyph-name="Atilde" unicode="&#xc3;" horiz-adv-x="636" 
d="M188 30q-5 -15 -13 -22.5t-27 -7.5h-135q-24 0 -15 30l200 640q9 30 40 30h160q31 0 40 -30l200 -640q9 -30 -15 -30h-135q-19 0 -27 7.5t-13 22.5l-30 105h-200zM263 290h110l-50 185h-10zM448 840q0 -38 -14.5 -54t-40.5 -16q-19 0 -34 8t-27 17t-22 17t-17 8
q-10 0 -10 -10v-15q0 -25 -25 -25h-45q-25 0 -25 25v80q0 38 14.5 54t40.5 16q19 0 34 -8t27 -17t21.5 -17t17.5 -8q10 0 10 10v15q0 25 25 25h45q25 0 25 -25v-80z" />
    <glyph glyph-name="Adieresis" unicode="&#xc4;" horiz-adv-x="636" 
d="M188 30q-5 -15 -13 -22.5t-27 -7.5h-135q-24 0 -15 30l200 640q9 30 40 30h160q31 0 40 -30l200 -640q9 -30 -15 -30h-135q-19 0 -27 7.5t-13 22.5l-30 105h-200zM263 290h110l-50 185h-10zM481 810q0 -30 -30 -30h-75q-30 0 -30 30v90q0 30 30 30h75q30 0 30 -30v-90z
M291 810q0 -30 -30 -30h-75q-30 0 -30 30v90q0 30 30 30h75q30 0 30 -30v-90z" />
    <glyph glyph-name="Aring" unicode="&#xc5;" horiz-adv-x="636" 
d="M188 30q-5 -15 -13 -22.5t-27 -7.5h-135q-24 0 -15 30l200 640q9 30 40 30h160q31 0 40 -30l200 -640q9 -30 -15 -30h-135q-19 0 -27 7.5t-13 22.5l-30 105h-200zM263 290h110l-50 185h-10zM293 860q0 -15 5 -20t20 -5t20 5t5 20v35q0 15 -5 20t-20 5t-20 -5t-5 -20v-35z
M213 905q0 90 90 90h30q90 0 90 -90v-55q0 -90 -90 -90h-30q-90 0 -90 90v55z" />
    <glyph glyph-name="AE" unicode="&#xc6;" horiz-adv-x="928" 
d="M188 30q-5 -15 -13 -22.5t-27 -7.5h-135q-24 0 -15 30l200 640q9 30 40 30h625q30 0 30 -30v-100q0 -30 -30 -30h-272v-105h197q30 0 30 -30v-100q0 -30 -30 -30h-197v-115h282q30 0 30 -30v-100q0 -30 -30 -30h-430q-30 0 -30 30v105h-195zM263 290h150v250h-80z" />
    <glyph glyph-name="Ccedilla" unicode="&#xc7;" horiz-adv-x="675" 
d="M285 -85q0 15 1.5 20.5t3.5 9.5l15 45h-95q-150 0 -150 150v420q0 150 150 150h270q150 0 150 -150v-75q0 -30 -30 -30h-120q-30 0 -30 30v25q0 40 -40 40h-130q-40 0 -40 -40v-320q0 -40 40 -40h130q40 0 40 40v25q0 30 30 30h120q30 0 30 -30v-75q0 -150 -150 -150h-95
l-15 -45q42 0 68.5 -26.5t26.5 -68.5v-35q0 -45 -27.5 -72.5t-72.5 -27.5h-70q-20 0 -20 20v45q0 20 20 20h55q25 0 25 25v10q0 25 -25 25h-45q-20 0 -20 20v35z" />
    <glyph glyph-name="Egrave" unicode="&#xc8;" horiz-adv-x="605" 
d="M65 670q0 30 30 30h445q30 0 30 -30v-100q0 -30 -30 -30h-295v-105h220q30 0 30 -30v-100q0 -30 -30 -30h-220v-115h305q30 0 30 -30v-100q0 -30 -30 -30h-455q-30 0 -30 30v640zM195 925q-8 15 -2 22.5t17 7.5h100q15 0 22.5 -7.5t12.5 -22.5l40 -125q5 -15 -2 -22.5
t-18 -7.5h-60q-15 0 -23.5 7.5t-16.5 22.5z" />
    <glyph glyph-name="Eacute" unicode="&#xc9;" horiz-adv-x="605" 
d="M65 670q0 30 30 30h445q30 0 30 -30v-100q0 -30 -30 -30h-295v-105h220q30 0 30 -30v-100q0 -30 -30 -30h-220v-115h305q30 0 30 -30v-100q0 -30 -30 -30h-455q-30 0 -30 30v640zM375 800q-8 -15 -16.5 -22.5t-23.5 -7.5h-60q-11 0 -18 7.5t-2 22.5l40 125
q5 15 12.5 22.5t22.5 7.5h100q11 0 17 -7.5t-2 -22.5z" />
    <glyph glyph-name="Ecircumflex" unicode="&#xca;" horiz-adv-x="605" 
d="M65 670q0 30 30 30h445q30 0 30 -30v-100q0 -30 -30 -30h-295v-105h220q30 0 30 -30v-100q0 -30 -30 -30h-220v-115h305q30 0 30 -30v-100q0 -30 -30 -30h-455q-30 0 -30 30v640zM315 850l-25 -50q-8 -15 -16.5 -22.5t-23.5 -7.5h-80q-11 0 -17 9t2 21l80 125
q12 19 18.5 24.5t21.5 5.5h85q15 0 21.5 -5.5t18.5 -24.5l80 -125q8 -12 2 -21t-17 -9h-80q-15 0 -23.5 7.5t-16.5 22.5l-25 50h-5z" />
    <glyph glyph-name="Edieresis" unicode="&#xcb;" horiz-adv-x="605" 
d="M65 670q0 30 30 30h445q30 0 30 -30v-100q0 -30 -30 -30h-295v-105h220q30 0 30 -30v-100q0 -30 -30 -30h-220v-115h305q30 0 30 -30v-100q0 -30 -30 -30h-455q-30 0 -30 30v640zM480 820q0 -30 -30 -30h-75q-30 0 -30 30v90q0 30 30 30h75q30 0 30 -30v-90zM290 820
q0 -30 -30 -30h-75q-30 0 -30 30v90q0 30 30 30h75q30 0 30 -30v-90z" />
    <glyph glyph-name="Igrave" unicode="&#xcc;" horiz-adv-x="309" 
d="M65 670q0 30 30 30h120q30 0 30 -30v-640q0 -30 -30 -30h-120q-30 0 -30 30v640zM21 925q-8 15 -2 22.5t17 7.5h100q15 0 22.5 -7.5t12.5 -22.5l40 -125q5 -15 -2 -22.5t-18 -7.5h-60q-15 0 -23.5 7.5t-16.5 22.5z" />
    <glyph glyph-name="Iacute" unicode="&#xcd;" horiz-adv-x="310" 
d="M65 670q0 30 30 30h120q30 0 30 -30v-640q0 -30 -30 -30h-120q-30 0 -30 30v640zM220 800q-8 -15 -16.5 -22.5t-23.5 -7.5h-60q-11 0 -18 7.5t-2 22.5l40 125q5 15 12.5 22.5t22.5 7.5h100q11 0 17 -7.5t-2 -22.5z" />
    <glyph glyph-name="Icircumflex" unicode="&#xce;" horiz-adv-x="315" 
d="M67 670q0 30 30 30h120q30 0 30 -30v-640q0 -30 -30 -30h-120q-30 0 -30 30v640zM156 850l-25 -50q-8 -15 -16.5 -22.5t-23.5 -7.5h-80q-11 0 -17 9t2 21l80 125q12 19 18.5 24.5t21.5 5.5h85q15 0 21.5 -5.5t18.5 -24.5l80 -125q8 -12 2 -21t-17 -9h-80q-15 0 -23.5 7.5
t-16.5 22.5l-25 50h-5z" />
    <glyph glyph-name="Idieresis" unicode="&#xcf;" horiz-adv-x="315" 
d="M67 670q0 30 30 30h120q30 0 30 -30v-640q0 -30 -30 -30h-120q-30 0 -30 30v640zM321 810q0 -30 -30 -30h-75q-30 0 -30 30v90q0 30 30 30h75q30 0 30 -30v-90zM131 810q0 -30 -30 -30h-75q-30 0 -30 30v90q0 30 30 30h75q30 0 30 -30v-90z" />
    <glyph glyph-name="Eth" unicode="&#xd0;" horiz-adv-x="710" 
d="M75 670q0 30 30 30h395q150 0 150 -150v-400q0 -150 -150 -150h-395q-30 0 -30 30v240h-20q-30 0 -30 30v90q0 30 30 30h20v250zM255 540v-120h75q30 0 30 -30v-90q0 -30 -30 -30h-75v-110h175q40 0 40 40v300q0 40 -40 40h-175z" />
    <glyph glyph-name="Ntilde" unicode="&#xd1;" horiz-adv-x="710" 
d="M245 30q0 -30 -30 -30h-120q-30 0 -30 30v640q0 30 30 30h155q15 0 23.5 -7.5t16.5 -22.5l165 -345h10v345q0 30 30 30h120q30 0 30 -30v-640q0 -30 -30 -30h-155q-15 0 -23.5 7.5t-16.5 22.5l-165 345h-10v-345zM490 840q0 -38 -14.5 -54t-40.5 -16q-19 0 -34 8t-27 17
t-22 17t-17 8q-10 0 -10 -10v-15q0 -25 -25 -25h-45q-25 0 -25 25v80q0 38 14.5 54t40.5 16q19 0 34 -8t27 -17t21.5 -17t17.5 -8q10 0 10 10v15q0 25 25 25h45q25 0 25 -25v-80z" />
    <glyph glyph-name="Ograve" unicode="&#xd2;" horiz-adv-x="700" 
d="M460 510q0 40 -40 40h-140q-40 0 -40 -40v-320q0 -40 40 -40h140q40 0 40 40v320zM640 140q0 -150 -150 -150h-280q-150 0 -150 150v420q0 150 150 150h280q150 0 150 -150v-420zM220 935q-8 15 -2 22.5t17 7.5h100q15 0 22.5 -7.5t12.5 -22.5l40 -125q5 -15 -2 -22.5
t-18 -7.5h-60q-15 0 -23.5 7.5t-16.5 22.5z" />
    <glyph glyph-name="Oacute" unicode="&#xd3;" horiz-adv-x="700" 
d="M460 510q0 40 -40 40h-140q-40 0 -40 -40v-320q0 -40 40 -40h140q40 0 40 40v320zM640 140q0 -150 -150 -150h-280q-150 0 -150 150v420q0 150 150 150h280q150 0 150 -150v-420zM410 810q-8 -15 -16.5 -22.5t-23.5 -7.5h-60q-11 0 -18 7.5t-2 22.5l40 125
q5 15 12.5 22.5t22.5 7.5h100q11 0 17 -7.5t-2 -22.5z" />
    <glyph glyph-name="Ocircumflex" unicode="&#xd4;" horiz-adv-x="700" 
d="M460 510q0 40 -40 40h-140q-40 0 -40 -40v-320q0 -40 40 -40h140q40 0 40 40v320zM640 140q0 -150 -150 -150h-280q-150 0 -150 150v420q0 150 150 150h280q150 0 150 -150v-420zM348 860l-25 -50q-8 -15 -16.5 -22.5t-23.5 -7.5h-80q-11 0 -17 9t2 21l80 125
q12 19 18.5 24.5t21.5 5.5h85q15 0 21.5 -5.5t18.5 -24.5l80 -125q8 -12 2 -21t-17 -9h-80q-15 0 -23.5 7.5t-16.5 22.5l-25 50h-5z" />
    <glyph glyph-name="Otilde" unicode="&#xd5;" horiz-adv-x="700" 
d="M460 510q0 40 -40 40h-140q-40 0 -40 -40v-320q0 -40 40 -40h140q40 0 40 40v320zM640 140q0 -150 -150 -150h-280q-150 0 -150 150v420q0 150 150 150h280q150 0 150 -150v-420zM480 840q0 -38 -14.5 -54t-40.5 -16q-19 0 -34 8t-27 17t-22 17t-17 8q-10 0 -10 -10v-15
q0 -25 -25 -25h-45q-25 0 -25 25v80q0 38 14.5 54t40.5 16q19 0 34 -8t27 -17t21.5 -17t17.5 -8q10 0 10 10v15q0 25 25 25h45q25 0 25 -25v-80z" />
    <glyph glyph-name="Odieresis" unicode="&#xd6;" horiz-adv-x="700" 
d="M460 510q0 40 -40 40h-140q-40 0 -40 -40v-320q0 -40 40 -40h140q40 0 40 40v320zM640 140q0 -150 -150 -150h-280q-150 0 -150 150v420q0 150 150 150h280q150 0 150 -150v-420zM513 820q0 -30 -30 -30h-75q-30 0 -30 30v90q0 30 30 30h75q30 0 30 -30v-90zM323 820
q0 -30 -30 -30h-75q-30 0 -30 30v90q0 30 30 30h75q30 0 30 -30v-90z" />
    <glyph glyph-name="multiply" unicode="&#xd7;" horiz-adv-x="420" 
d="M380 255q20 -20 0 -40l-60 -60q-20 -20 -40 0l-70 75l-70 -75q-9 -9 -19.5 -9.5t-20.5 9.5l-60 60q-20 20 0 40l70 70l-70 70q-20 20 0 40l60 60q20 20 40 0l70 -75l70 75q20 20 40 0l60 -60q20 -20 0 -40l-70 -70z" />
    <glyph glyph-name="Oslash" unicode="&#xd8;" horiz-adv-x="700" 
d="M280 550q-40 0 -40 -40v-240h5l160 280h-125zM295 150h125q40 0 40 40v240h-5zM640 140q0 -150 -150 -150h-280q-150 0 -150 150v420q0 150 150 150h280q150 0 150 -150v-420z" />
    <glyph glyph-name="Ugrave" unicode="&#xd9;" horiz-adv-x="695" 
d="M245 190q0 -40 40 -40h125q40 0 40 40v480q0 30 30 30h120q30 0 30 -30v-530q0 -150 -150 -150h-265q-150 0 -150 150v530q0 30 30 30h120q30 0 30 -30v-480zM215 925q-8 15 -2 22.5t17 7.5h100q15 0 22.5 -7.5t12.5 -22.5l40 -125q5 -15 -2 -22.5t-18 -7.5h-60
q-15 0 -23.5 7.5t-16.5 22.5z" />
    <glyph glyph-name="Uacute" unicode="&#xda;" horiz-adv-x="695" 
d="M245 190q0 -40 40 -40h125q40 0 40 40v480q0 30 30 30h120q30 0 30 -30v-530q0 -150 -150 -150h-265q-150 0 -150 150v530q0 30 30 30h120q30 0 30 -30v-480zM410 800q-8 -15 -16.5 -22.5t-23.5 -7.5h-60q-11 0 -18 7.5t-2 22.5l40 125q5 15 12.5 22.5t22.5 7.5h100
q11 0 17 -7.5t-2 -22.5z" />
    <glyph glyph-name="Ucircumflex" unicode="&#xdb;" horiz-adv-x="695" 
d="M245 190q0 -40 40 -40h125q40 0 40 40v480q0 30 30 30h120q30 0 30 -30v-530q0 -150 -150 -150h-265q-150 0 -150 150v530q0 30 30 30h120q30 0 30 -30v-480zM345 860l-25 -50q-8 -15 -16.5 -22.5t-23.5 -7.5h-80q-11 0 -17 9t2 21l80 125q12 19 18.5 24.5t21.5 5.5h85
q15 0 21.5 -5.5t18.5 -24.5l80 -125q8 -12 2 -21t-17 -9h-80q-15 0 -23.5 7.5t-16.5 22.5l-25 50h-5z" />
    <glyph glyph-name="Udieresis" unicode="&#xdc;" horiz-adv-x="695" 
d="M245 190q0 -40 40 -40h125q40 0 40 40v480q0 30 30 30h120q30 0 30 -30v-530q0 -150 -150 -150h-265q-150 0 -150 150v530q0 30 30 30h120q30 0 30 -30v-480zM510 820q0 -30 -30 -30h-75q-30 0 -30 30v90q0 30 30 30h75q30 0 30 -30v-90zM320 820q0 -30 -30 -30h-75
q-30 0 -30 30v90q0 30 30 30h75q30 0 30 -30v-90z" />
    <glyph glyph-name="Yacute" unicode="&#xdd;" horiz-adv-x="618" 
d="M249 0q-30 0 -30 30v210l-220 430q-7 14 -1.5 22t16.5 8h135q15 0 24 -7.5t16 -22.5l115 -240h10l115 240q7 15 16 22.5t24 7.5h135q11 0 16.5 -8t-1.5 -22l-220 -430v-210q0 -30 -30 -30h-120zM379 800q-8 -15 -16.5 -22.5t-23.5 -7.5h-60q-11 0 -18 7.5t-2 22.5l40 125
q5 15 12.5 22.5t22.5 7.5h100q11 0 17 -7.5t-2 -22.5z" />
    <glyph glyph-name="Thorn" unicode="&#xde;" horiz-adv-x="690" 
d="M245 30q0 -30 -30 -30h-120q-30 0 -30 30v640q0 30 30 30h120q30 0 30 -30v-55h245q150 0 150 -150v-230q0 -150 -150 -150h-245v-55zM420 245q40 0 40 40v130q0 40 -40 40h-175v-210h175z" />
    <glyph glyph-name="germandbls" unicode="&#xdf;" horiz-adv-x="545" 
d="M500 125q0 -57 -34 -91t-91 -34h-75q-30 0 -30 30v80q0 30 30 30h10q15 0 25 10t10 25v65q0 15 -10 25t-25 10h-20q-30 0 -30 30v80q0 30 25 30q20 0 20 20v90q0 15 -10 25t-25 10h-20q-15 0 -25 -10t-10 -25v-495q0 -30 -30 -30h-95q-30 0 -30 30v545q0 57 34 91t91 34
h150q57 0 91 -34t34 -91v-110q0 -25 -6 -39.5t-14 -22.5q-9 -10 -20 -13v-10q22 -4 40 -16q15 -11 27.5 -30.5t12.5 -53.5v-155z" />
    <glyph glyph-name="agrave" unicode="&#xe0;" 
d="M255 110q19 0 32 13t13 32v40h-70q-15 0 -25 -10t-10 -25v-15q0 -15 10 -25t25 -10h25zM455 30q0 -30 -30 -30h-95q-30 0 -30 30v15h-10q-3 -16 -13 -28q-8 -11 -23 -19t-39 -8h-50q-57 0 -91 34t-34 91v70q0 57 34 91t91 34h135v45q0 15 -10 25t-25 10h-35
q-25 0 -25 -25q0 -30 -30 -30h-85q-30 0 -30 30v30q0 57 34 91t91 34h145q57 0 91 -34t34 -91v-365zM135 735q-8 15 -2 22.5t17 7.5h100q15 0 22.5 -7.5t12.5 -22.5l40 -125q5 -15 -2 -22.5t-18 -7.5h-60q-15 0 -23.5 7.5t-16.5 22.5z" />
    <glyph glyph-name="aacute" unicode="&#xe1;" 
d="M255 110q19 0 32 13t13 32v40h-70q-15 0 -25 -10t-10 -25v-15q0 -15 10 -25t25 -10h25zM455 30q0 -30 -30 -30h-95q-30 0 -30 30v15h-10q-3 -16 -13 -28q-8 -11 -23 -19t-39 -8h-50q-57 0 -91 34t-34 91v70q0 57 34 91t91 34h135v45q0 15 -10 25t-25 10h-35
q-25 0 -25 -25q0 -30 -30 -30h-85q-30 0 -30 30v30q0 57 34 91t91 34h145q57 0 91 -34t34 -91v-365zM330 610q-8 -15 -16.5 -22.5t-23.5 -7.5h-60q-11 0 -18 7.5t-2 22.5l40 125q5 15 12.5 22.5t22.5 7.5h100q11 0 17 -7.5t-2 -22.5z" />
    <glyph glyph-name="acircumflex" unicode="&#xe2;" 
d="M255 110q19 0 32 13t13 32v40h-70q-15 0 -25 -10t-10 -25v-15q0 -15 10 -25t25 -10h25zM455 30q0 -30 -30 -30h-95q-30 0 -30 30v15h-10q-3 -16 -13 -28q-8 -11 -23 -19t-39 -8h-50q-57 0 -91 34t-34 91v70q0 57 34 91t91 34h135v45q0 15 -10 25t-25 10h-35
q-25 0 -25 -25q0 -30 -30 -30h-85q-30 0 -30 30v30q0 57 34 91t91 34h145q57 0 91 -34t34 -91v-365zM255 660l-25 -50q-8 -15 -16.5 -22.5t-23.5 -7.5h-80q-11 0 -17 9t2 21l80 125q12 19 18.5 24.5t21.5 5.5h85q15 0 21.5 -5.5t18.5 -24.5l80 -125q8 -12 2 -21t-17 -9h-80
q-15 0 -23.5 7.5t-16.5 22.5l-25 50h-5z" />
    <glyph glyph-name="atilde" unicode="&#xe3;" 
d="M255 110q19 0 32 13t13 32v40h-70q-15 0 -25 -10t-10 -25v-15q0 -15 10 -25t25 -10h25zM455 30q0 -30 -30 -30h-95q-30 0 -30 30v15h-10q-3 -16 -13 -28q-8 -11 -23 -19t-39 -8h-50q-57 0 -91 34t-34 91v70q0 57 34 91t91 34h135v45q0 15 -10 25t-25 10h-35
q-25 0 -25 -25q0 -30 -30 -30h-85q-30 0 -30 30v30q0 57 34 91t91 34h145q57 0 91 -34t34 -91v-365zM385 645q0 -38 -14.5 -54t-40.5 -16q-19 0 -34 8t-27 17t-22 17t-17 8q-10 0 -10 -10v-15q0 -25 -25 -25h-45q-25 0 -25 25v80q0 38 14.5 54t40.5 16q19 0 34 -8t27 -17
t21.5 -17t17.5 -8q10 0 10 10v15q0 25 25 25h45q25 0 25 -25v-80z" />
    <glyph glyph-name="adieresis" unicode="&#xe4;" 
d="M255 110q19 0 32 13t13 32v40h-70q-15 0 -25 -10t-10 -25v-15q0 -15 10 -25t25 -10h25zM455 30q0 -30 -30 -30h-95q-30 0 -30 30v15h-10q-3 -16 -13 -28q-8 -11 -23 -19t-39 -8h-50q-57 0 -91 34t-34 91v70q0 57 34 91t91 34h135v45q0 15 -10 25t-25 10h-35
q-25 0 -25 -25q0 -30 -30 -30h-85q-30 0 -30 30v30q0 57 34 91t91 34h145q57 0 91 -34t34 -91v-365zM420 620q0 -30 -30 -30h-75q-30 0 -30 30v90q0 30 30 30h75q30 0 30 -30v-90zM230 620q0 -30 -30 -30h-75q-30 0 -30 30v90q0 30 30 30h75q30 0 30 -30v-90z" />
    <glyph glyph-name="aring" unicode="&#xe5;" 
d="M255 110q19 0 32 13t13 32v40h-70q-15 0 -25 -10t-10 -25v-15q0 -15 10 -25t25 -10h25zM455 30q0 -30 -30 -30h-95q-30 0 -30 30v15h-10q-3 -16 -13 -28q-8 -11 -23 -19t-39 -8h-50q-57 0 -91 34t-34 91v70q0 57 34 91t91 34h135v45q0 15 -10 25t-25 10h-35
q-25 0 -25 -25q0 -30 -30 -30h-85q-30 0 -30 30v30q0 57 34 91t91 34h145q57 0 91 -34t34 -91v-365zM230 670q0 -15 5 -20t20 -5t20 5t5 20v35q0 15 -5 20t-20 5t-20 -5t-5 -20v-35zM150 715q0 90 90 90h30q90 0 90 -90v-55q0 -90 -90 -90h-30q-90 0 -90 90v55z" />
    <glyph glyph-name="ae" unicode="&#xe6;" horiz-adv-x="760" 
d="M255 110q19 0 32 13t13 32v40h-70q-15 0 -25 -10t-10 -25v-15q0 -15 10 -25t25 -10h25zM450 315h110v35q0 15 -10 25t-25 10h-40q-15 0 -25 -10t-10 -25v-35zM165 -10q-57 0 -91 34t-34 91v70q0 57 34 91t91 34h135v45q0 15 -10 25t-25 10h-35q-25 0 -25 -25
q0 -30 -30 -30h-85q-30 0 -30 30v30q0 57 34 91t91 34h115q20 0 34.5 -7.5t23.5 -15.5q11 -10 17 -22h10q6 12 17 22q9 8 23 15.5t35 7.5h130q57 0 91 -34t34 -91v-160q0 -30 -30 -30h-235v-55q0 -15 10 -25t25 -10h55q25 0 25 25q0 30 30 30h85q30 0 30 -30v-25
q0 -57 -34 -91t-91 -34h-125q-21 0 -35 7t-23 15q-11 10 -17 23h-10q-6 -13 -17 -23q-9 -8 -23.5 -15t-34.5 -7h-135z" />
    <glyph glyph-name="ccedilla" unicode="&#xe7;" 
d="M190 -85q0 15 1.5 20.5t3.5 9.5l15 45h-40q-57 0 -91 34t-34 91v280q0 57 34 91t91 34h175q57 0 91 -34t34 -91v-70q0 -30 -30 -30h-95q-30 0 -30 30v20q0 15 -10 25t-25 10h-45q-15 0 -25 -10t-10 -25v-180q0 -15 10 -25t25 -10h45q15 0 25 10t10 25v20q0 30 30 30h95
q30 0 30 -30v-70q0 -57 -34 -91t-91 -34h-55l-15 -45q42 0 68.5 -26.5t26.5 -68.5v-35q0 -45 -27.5 -72.5t-72.5 -27.5h-70q-20 0 -20 20v45q0 20 20 20h55q25 0 25 25v10q0 25 -25 25h-45q-20 0 -20 20v35z" />
    <glyph glyph-name="egrave" unicode="&#xe8;" 
d="M465 235q0 -30 -30 -30h-235v-55q0 -15 10 -25t25 -10h55q25 0 25 25q0 30 30 30h85q30 0 30 -30v-25q0 -57 -34 -91t-91 -34h-165q-57 0 -91 34t-34 91v280q0 57 34 91t91 34h170q57 0 91 -34t34 -91v-160zM200 315h110v35q0 15 -10 25t-25 10h-40q-15 0 -25 -10
t-10 -25v-35zM130 735q-8 15 -2 22.5t17 7.5h100q15 0 22.5 -7.5t12.5 -22.5l40 -125q5 -15 -2 -22.5t-18 -7.5h-60q-15 0 -23.5 7.5t-16.5 22.5z" />
    <glyph glyph-name="eacute" unicode="&#xe9;" 
d="M465 235q0 -30 -30 -30h-235v-55q0 -15 10 -25t25 -10h55q25 0 25 25q0 30 30 30h85q30 0 30 -30v-25q0 -57 -34 -91t-91 -34h-165q-57 0 -91 34t-34 91v280q0 57 34 91t91 34h170q57 0 91 -34t34 -91v-160zM200 315h110v35q0 15 -10 25t-25 10h-40q-15 0 -25 -10
t-10 -25v-35zM315 610q-8 -15 -16.5 -22.5t-23.5 -7.5h-60q-11 0 -18 7.5t-2 22.5l40 125q5 15 12.5 22.5t22.5 7.5h100q11 0 17 -7.5t-2 -22.5z" />
    <glyph glyph-name="ecircumflex" unicode="&#xea;" 
d="M465 235q0 -30 -30 -30h-235v-55q0 -15 10 -25t25 -10h55q25 0 25 25q0 30 30 30h85q30 0 30 -30v-25q0 -57 -34 -91t-91 -34h-165q-57 0 -91 34t-34 91v280q0 57 34 91t91 34h170q57 0 91 -34t34 -91v-160zM200 315h110v35q0 15 -10 25t-25 10h-40q-15 0 -25 -10
t-10 -25v-35zM253 660l-25 -50q-8 -15 -16.5 -22.5t-23.5 -7.5h-80q-11 0 -17 9t2 21l80 125q12 19 18.5 24.5t21.5 5.5h85q15 0 21.5 -5.5t18.5 -24.5l80 -125q8 -12 2 -21t-17 -9h-80q-15 0 -23.5 7.5t-16.5 22.5l-25 50h-5z" />
    <glyph glyph-name="edieresis" unicode="&#xeb;" 
d="M465 235q0 -30 -30 -30h-235v-55q0 -15 10 -25t25 -10h55q25 0 25 25q0 30 30 30h85q30 0 30 -30v-25q0 -57 -34 -91t-91 -34h-165q-57 0 -91 34t-34 91v280q0 57 34 91t91 34h170q57 0 91 -34t34 -91v-160zM200 315h110v35q0 15 -10 25t-25 10h-40q-15 0 -25 -10
t-10 -25v-35zM418 620q0 -30 -30 -30h-75q-30 0 -30 30v90q0 30 30 30h75q30 0 30 -30v-90zM228 620q0 -30 -30 -30h-75q-30 0 -30 30v90q0 30 30 30h75q30 0 30 -30v-90z" />
    <glyph glyph-name="igrave" unicode="&#xec;" horiz-adv-x="265" 
d="M55 480q0 30 30 30h95q30 0 30 -30v-450q0 -30 -30 -30h-95q-30 0 -30 30v450zM-4 735q-8 15 -2 22.5t17 7.5h100q15 0 22.5 -7.5t12.5 -22.5l40 -125q5 -15 -2 -22.5t-18 -7.5h-60q-15 0 -23.5 7.5t-16.5 22.5z" />
    <glyph glyph-name="iacute" unicode="&#xed;" horiz-adv-x="265" 
d="M55 480q0 30 30 30h95q30 0 30 -30v-450q0 -30 -30 -30h-95q-30 0 -30 30v450zM200 610q-8 -15 -16.5 -22.5t-23.5 -7.5h-60q-11 0 -18 7.5t-2 22.5l40 125q5 15 12.5 22.5t22.5 7.5h100q11 0 17 -7.5t-2 -22.5z" />
    <glyph glyph-name="icircumflex" unicode="&#xee;" horiz-adv-x="265" 
d="M55 480q0 30 30 30h95q30 0 30 -30v-450q0 -30 -30 -30h-95q-30 0 -30 30v450zM131 660l-25 -50q-8 -15 -16.5 -22.5t-23.5 -7.5h-80q-11 0 -17 9t2 21l80 125q12 19 18.5 24.5t21.5 5.5h85q15 0 21.5 -5.5t18.5 -24.5l80 -125q8 -12 2 -21t-17 -9h-80q-15 0 -23.5 7.5
t-16.5 22.5l-25 50h-5z" />
    <glyph glyph-name="idieresis" unicode="&#xef;" horiz-adv-x="265" 
d="M55 480q0 30 30 30h95q30 0 30 -30v-450q0 -30 -30 -30h-95q-30 0 -30 30v450zM296 620q0 -30 -30 -30h-75q-30 0 -30 30v90q0 30 30 30h75q30 0 30 -30v-90zM106 620q0 -30 -30 -30h-75q-30 0 -30 30v90q0 30 30 30h75q30 0 30 -30v-90z" />
    <glyph glyph-name="eth" unicode="&#xf0;" horiz-adv-x="515" 
d="M200 165q0 -15 10 -25t25 -10h35q15 0 25 10t10 25v120h-70q-15 0 -25 -10t-10 -25v-85zM460 115q0 -57 -34 -91t-91 -34h-165q-57 0 -91 34t-34 91v159q0 69 28 110t97 41h135v50q0 15 -5.5 24.5t-12.5 15.5q-8 6 -17 10l-15 -30q-11 -22 -30 -15l-70 30q-11 5 -15 13
t0 17l10 25l-25 11q-11 5 -15.5 12t0.5 22l25 70q6 17 15 20.5t20 -0.5l25 -10l15 30q5 11 13 12.5t17 -2.5l70 -25q24 -10 15 -30l-10 -25l40 -15q49 -18 77 -50.5t28 -89.5v-380z" />
    <glyph glyph-name="ntilde" unicode="&#xf1;" horiz-adv-x="535" 
d="M480 30q0 -30 -30 -30h-95q-30 0 -30 30v315q0 15 -10 25t-25 10h-45q-15 0 -25 -10t-10 -25v-315q0 -30 -30 -30h-95q-30 0 -30 30v450q0 30 30 30h95q30 0 30 -30v-15h10q3 15 13 27q8 11 22.5 19.5t39.5 8.5h60q57 0 91 -34t34 -91v-365zM395 650q0 -38 -14.5 -54
t-40.5 -16q-19 0 -34 8t-27 17t-22 17t-17 8q-10 0 -10 -10v-15q0 -25 -25 -25h-45q-25 0 -25 25v80q0 38 14.5 54t40.5 16q19 0 34 -8t27 -17t21.5 -17t17.5 -8q10 0 10 10v15q0 25 25 25h45q25 0 25 -25v-80z" />
    <glyph glyph-name="ograve" unicode="&#xf2;" horiz-adv-x="525" 
d="M45 395q0 57 34 91t91 34h185q57 0 91 -34t34 -91v-280q0 -57 -34 -91t-91 -34h-185q-57 0 -91 34t-34 91v280zM200 165q0 -15 10 -25t25 -10h55q15 0 25 10t10 25v180q0 15 -10 25t-25 10h-55q-15 0 -25 -10t-10 -25v-180zM130 735q-8 15 -2 22.5t17 7.5h100
q15 0 22.5 -7.5t12.5 -22.5l40 -125q5 -15 -2 -22.5t-18 -7.5h-60q-15 0 -23.5 7.5t-16.5 22.5z" />
    <glyph glyph-name="oacute" unicode="&#xf3;" horiz-adv-x="525" 
d="M45 395q0 57 34 91t91 34h185q57 0 91 -34t34 -91v-280q0 -57 -34 -91t-91 -34h-185q-57 0 -91 34t-34 91v280zM200 165q0 -15 10 -25t25 -10h55q15 0 25 10t10 25v180q0 15 -10 25t-25 10h-55q-15 0 -25 -10t-10 -25v-180zM325 610q-8 -15 -16.5 -22.5t-23.5 -7.5h-60
q-11 0 -18 7.5t-2 22.5l40 125q5 15 12.5 22.5t22.5 7.5h100q11 0 17 -7.5t-2 -22.5z" />
    <glyph glyph-name="ocircumflex" unicode="&#xf4;" horiz-adv-x="525" 
d="M45 395q0 57 34 91t91 34h185q57 0 91 -34t34 -91v-280q0 -57 -34 -91t-91 -34h-185q-57 0 -91 34t-34 91v280zM200 165q0 -15 10 -25t25 -10h55q15 0 25 10t10 25v180q0 15 -10 25t-25 10h-55q-15 0 -25 -10t-10 -25v-180zM260 660l-25 -50q-8 -15 -16.5 -22.5
t-23.5 -7.5h-80q-11 0 -17 9t2 21l80 125q12 19 18.5 24.5t21.5 5.5h85q15 0 21.5 -5.5t18.5 -24.5l80 -125q8 -12 2 -21t-17 -9h-80q-15 0 -23.5 7.5t-16.5 22.5l-25 50h-5z" />
    <glyph glyph-name="otilde" unicode="&#xf5;" horiz-adv-x="525" 
d="M45 395q0 57 34 91t91 34h185q57 0 91 -34t34 -91v-280q0 -57 -34 -91t-91 -34h-185q-57 0 -91 34t-34 91v280zM200 165q0 -15 10 -25t25 -10h55q15 0 25 10t10 25v180q0 15 -10 25t-25 10h-55q-15 0 -25 -10t-10 -25v-180zM392 650q0 -38 -14.5 -54t-40.5 -16
q-19 0 -34 8t-27 17t-22 17t-17 8q-10 0 -10 -10v-15q0 -25 -25 -25h-45q-25 0 -25 25v80q0 38 14.5 54t40.5 16q19 0 34 -8t27 -17t21.5 -17t17.5 -8q10 0 10 10v15q0 25 25 25h45q25 0 25 -25v-80z" />
    <glyph glyph-name="odieresis" unicode="&#xf6;" horiz-adv-x="525" 
d="M45 395q0 57 34 91t91 34h185q57 0 91 -34t34 -91v-280q0 -57 -34 -91t-91 -34h-185q-57 0 -91 34t-34 91v280zM200 165q0 -15 10 -25t25 -10h55q15 0 25 10t10 25v180q0 15 -10 25t-25 10h-55q-15 0 -25 -10t-10 -25v-180zM425 630q0 -30 -30 -30h-75q-30 0 -30 30v90
q0 30 30 30h75q30 0 30 -30v-90zM235 630q0 -30 -30 -30h-75q-30 0 -30 30v90q0 30 30 30h75q30 0 30 -30v-90z" />
    <glyph glyph-name="divide" unicode="&#xf7;" horiz-adv-x="420" 
d="M25 355q0 30 30 30h310q30 0 30 -30v-80q0 -30 -30 -30h-310q-30 0 -30 30v80zM135 160q0 30 30 30h90q30 0 30 -30v-95q0 -30 -30 -30h-90q-30 0 -30 30v95zM135 565q0 30 30 30h90q30 0 30 -30v-95q0 -30 -30 -30h-90q-30 0 -30 30v95z" />
    <glyph glyph-name="oslash" unicode="&#xf8;" horiz-adv-x="525" 
d="M330 295h-5l-90 -165h60q15 0 25 10t10 25v130zM291 380h-61q-15 0 -25 -10t-10 -25v-130h5zM45 395q0 57 34 91t91 34h185q57 0 91 -34t34 -91v-280q0 -57 -34 -91t-91 -34h-185q-57 0 -91 34t-34 91v280z" />
    <glyph glyph-name="ugrave" unicode="&#xf9;" horiz-adv-x="535" 
d="M55 480q0 30 30 30h95q30 0 30 -30v-315q0 -15 10 -25t25 -10h45q15 0 25 10t10 25v315q0 30 30 30h95q30 0 30 -30v-450q0 -30 -30 -30h-95q-30 0 -30 30v15h-10q-3 -16 -13 -28q-8 -11 -23 -19t-39 -8h-60q-57 0 -91 34t-34 91v365zM135 725q-8 15 -2 22.5t17 7.5h100
q15 0 22.5 -7.5t12.5 -22.5l40 -125q5 -15 -2 -22.5t-18 -7.5h-60q-15 0 -23.5 7.5t-16.5 22.5z" />
    <glyph glyph-name="uacute" unicode="&#xfa;" horiz-adv-x="535" 
d="M55 480q0 30 30 30h95q30 0 30 -30v-315q0 -15 10 -25t25 -10h45q15 0 25 10t10 25v315q0 30 30 30h95q30 0 30 -30v-450q0 -30 -30 -30h-95q-30 0 -30 30v15h-10q-3 -16 -13 -28q-8 -11 -23 -19t-39 -8h-60q-57 0 -91 34t-34 91v365zM330 600q-8 -15 -16.5 -22.5
t-23.5 -7.5h-60q-11 0 -18 7.5t-2 22.5l40 125q5 15 12.5 22.5t22.5 7.5h100q11 0 17 -7.5t-2 -22.5z" />
    <glyph glyph-name="ucircumflex" unicode="&#xfb;" horiz-adv-x="535" 
d="M55 480q0 30 30 30h95q30 0 30 -30v-315q0 -15 10 -25t25 -10h45q15 0 25 10t10 25v315q0 30 30 30h95q30 0 30 -30v-450q0 -30 -30 -30h-95q-30 0 -30 30v15h-10q-3 -16 -13 -28q-8 -11 -23 -19t-39 -8h-60q-57 0 -91 34t-34 91v365zM265 650l-25 -50
q-8 -15 -16.5 -22.5t-23.5 -7.5h-80q-11 0 -17 9t2 21l80 125q12 19 18.5 24.5t21.5 5.5h85q15 0 21.5 -5.5t18.5 -24.5l80 -125q8 -12 2 -21t-17 -9h-80q-15 0 -23.5 7.5t-16.5 22.5l-25 50h-5z" />
    <glyph glyph-name="udieresis" unicode="&#xfc;" horiz-adv-x="535" 
d="M55 480q0 30 30 30h95q30 0 30 -30v-315q0 -15 10 -25t25 -10h45q15 0 25 10t10 25v315q0 30 30 30h95q30 0 30 -30v-450q0 -30 -30 -30h-95q-30 0 -30 30v15h-10q-3 -16 -13 -28q-8 -11 -23 -19t-39 -8h-60q-57 0 -91 34t-34 91v365zM430 620q0 -30 -30 -30h-75
q-30 0 -30 30v90q0 30 30 30h75q30 0 30 -30v-90zM240 620q0 -30 -30 -30h-75q-30 0 -30 30v90q0 30 30 30h75q30 0 30 -30v-90z" />
    <glyph glyph-name="yacute" unicode="&#xfd;" horiz-adv-x="464" 
d="M232 235h10l60 245q7 30 35 30h105q11 0 18 -7.5t2 -22.5l-165 -525q-12 -39 -27 -67t-36.5 -45t-51 -25t-70.5 -8h-25q-30 0 -30 30v80q0 30 30 30h20q19 0 29 7.5t15 17.5q5 11 6 25l-155 480q-5 15 2 22.5t18 7.5h107q30 0 38 -30zM297 610q-8 -15 -16.5 -22.5
t-23.5 -7.5h-60q-11 0 -18 7.5t-2 22.5l40 125q5 15 12.5 22.5t22.5 7.5h100q11 0 17 -7.5t-2 -22.5z" />
    <glyph glyph-name="thorn" unicode="&#xfe;" horiz-adv-x="525" 
d="M55 670q0 30 30 30h95q30 0 30 -30v-160h145q57 0 91 -34t34 -91v-260q0 -57 -34 -91t-91 -34h-145v-160q0 -30 -30 -30h-95q-30 0 -30 30v830zM210 140h80q15 0 25 10t10 25v160q0 15 -10 25t-25 10h-80v-230z" />
    <glyph glyph-name="ydieresis" unicode="&#xff;" horiz-adv-x="464" 
d="M232 235h10l60 245q7 30 35 30h105q11 0 18 -7.5t2 -22.5l-165 -525q-12 -39 -27 -67t-36.5 -45t-51 -25t-70.5 -8h-25q-30 0 -30 30v80q0 30 30 30h20q19 0 29 7.5t15 17.5q5 11 6 25l-155 480q-5 15 2 22.5t18 7.5h107q30 0 38 -30zM397 630q0 -30 -30 -30h-75
q-30 0 -30 30v90q0 30 30 30h75q30 0 30 -30v-90zM207 630q0 -30 -30 -30h-75q-30 0 -30 30v90q0 30 30 30h75q30 0 30 -30v-90z" />
    <glyph glyph-name="dotlessi" unicode="&#x131;" horiz-adv-x="265" 
d="M55 480q0 30 30 30h95q30 0 30 -30v-450q0 -30 -30 -30h-95q-30 0 -30 30v450z" />
    <glyph glyph-name="OE" unicode="&#x152;" horiz-adv-x="940" 
d="M210 0q-150 0 -150 150v400q0 150 150 150h665q30 0 30 -30v-100q0 -30 -30 -30h-265v-105h190q30 0 30 -30v-100q0 -30 -30 -30h-190v-115h275q30 0 30 -30v-100q0 -30 -30 -30h-675zM280 540q-40 0 -40 -40v-300q0 -40 40 -40h150v380h-150z" />
    <glyph glyph-name="oe" unicode="&#x153;" horiz-adv-x="770" 
d="M310 520q20 0 34.5 -7.5t23.5 -15.5q11 -10 17 -22h10q6 12 17 22q9 8 23 15.5t35 7.5h130q57 0 91 -34t34 -91v-160q0 -30 -30 -30h-235v-55q0 -15 10 -25t25 -10h55q25 0 25 25q0 30 30 30h85q30 0 30 -30v-25q0 -57 -34 -91t-91 -34h-125q-21 0 -35 7t-23 15
q-11 10 -17 23h-10q-6 -13 -17 -23q-9 -8 -23.5 -15t-34.5 -7h-140q-57 0 -91 34t-34 91v280q0 57 34 91t91 34h140zM200 165q0 -15 10 -25t25 -10h50q15 0 25 10t10 25v180q0 15 -10 25t-25 10h-50q-15 0 -25 -10t-10 -25v-180zM460 315h110v35q0 15 -10 25t-25 10h-40
q-15 0 -25 -10t-10 -25v-35z" />
    <glyph glyph-name="afii57929" unicode="&#x2bc;" horiz-adv-x="200" 
d="M170 590q0 -11 -0.5 -18t-2 -12.5t-3.5 -9.5t-4 -10l-30 -70q-5 -11 -12.5 -18t-22.5 -7h-15q-11 0 -18 7t-2 18l35 80h-35q-30 0 -30 30v90q0 30 30 30h80q30 0 30 -30v-80z" />
    <glyph glyph-name="circumflex" unicode="&#x2c6;" horiz-adv-x="395" 
d="M195 595l-25 -50q-8 -15 -16.5 -22.5t-23.5 -7.5h-80q-11 0 -17 9t2 21l80 125q12 19 18.5 24.5t21.5 5.5h85q15 0 21.5 -5.5t18.5 -24.5l80 -125q8 -12 2 -21t-17 -9h-80q-15 0 -23.5 7.5t-16.5 22.5l-25 50h-5z" />
    <glyph glyph-name="ring" unicode="&#x2da;" horiz-adv-x="270" 
d="M110 565q0 -15 5 -20t20 -5t20 5t5 20v35q0 15 -5 20t-20 5t-20 -5t-5 -20v-35zM30 610q0 90 90 90h30q90 0 90 -90v-55q0 -90 -90 -90h-30q-90 0 -90 90v55z" />
    <glyph glyph-name="tilde" unicode="&#x2dc;" horiz-adv-x="320" 
d="M290 595q0 -38 -14.5 -54t-40.5 -16q-19 0 -34 8t-27 17t-22 17t-17 8q-10 0 -10 -10v-15q0 -25 -25 -25h-45q-25 0 -25 25v80q0 38 14.5 54t40.5 16q19 0 34 -8t27 -17t21.5 -17t17.5 -8q10 0 10 10v15q0 25 25 25h45q25 0 25 -25v-80z" />
    <glyph glyph-name="afii10023" unicode="&#x401;" horiz-adv-x="605" 
d="M65 670q0 30 30 30h445q30 0 30 -30v-100q0 -30 -30 -30h-295v-105h220q30 0 30 -30v-100q0 -30 -30 -30h-220v-115h305q30 0 30 -30v-100q0 -30 -30 -30h-455q-30 0 -30 30v640zM485 810q0 -30 -30 -30h-75q-30 0 -30 30v90q0 30 30 30h75q30 0 30 -30v-90zM295 810
q0 -30 -30 -30h-75q-30 0 -30 30v90q0 30 30 30h75q30 0 30 -30v-90z" />
    <glyph glyph-name="afii10051" unicode="&#x402;" horiz-adv-x="675" 
d="M405 -20q-30 0 -30 30v100q0 30 30 30h15q30 0 30 30v65q0 40 -40 40h-105v-245q0 -30 -30 -30h-120q-30 0 -30 30v510h-95q-30 0 -30 30v100q0 30 30 30h370q30 0 30 -30v-100q0 -30 -30 -30h-95v-105h175q150 0 150 -150v-155q0 -150 -150 -150h-75z" />
    <glyph glyph-name="afii10052" unicode="&#x403;" horiz-adv-x="530" 
d="M65 670q0 30 30 30h405q30 0 30 -30v-100q0 -30 -30 -30h-255v-510q0 -30 -30 -30h-120q-30 0 -30 30v640zM360 800q-8 -15 -16.5 -22.5t-23.5 -7.5h-60q-11 0 -18 7.5t-2 22.5l40 125q5 15 12.5 22.5t22.5 7.5h100q11 0 17 -7.5t-2 -22.5z" />
    <glyph glyph-name="afii10053" unicode="&#x404;" horiz-adv-x="675" 
d="M630 485q0 -30 -30 -30h-120q-30 0 -30 30v25q0 40 -40 40h-130q-40 0 -40 -40v-75h150q30 0 30 -30v-100q0 -30 -30 -30h-150v-85q0 -40 40 -40h130q40 0 40 40v25q0 30 30 30h120q30 0 30 -30v-75q0 -150 -150 -150h-270q-150 0 -150 150v420q0 150 150 150h270
q150 0 150 -150v-75z" />
    <glyph glyph-name="afii10054" unicode="&#x405;" horiz-adv-x="625" 
d="M410 200q0 19 -5.5 25.5t-24.5 14.5l-220 90q-27 11 -48 24t-34.5 30.5t-20.5 40.5t-7 55v80q0 150 150 150h230q150 0 150 -150v-75q0 -30 -30 -30h-120q-30 0 -30 30v25q0 40 -40 40h-90q-40 0 -40 -40v-10q0 -19 5.5 -25.5t24.5 -14.5l220 -90q28 -11 48.5 -24
t34 -30.5t20.5 -40.5t7 -55v-80q0 -150 -150 -150h-255q-150 0 -150 150v75q0 30 30 30h120q30 0 30 -30v-25q0 -40 40 -40h115q40 0 40 40v10z" />
    <glyph glyph-name="afii10055" unicode="&#x406;" horiz-adv-x="310" 
d="M65 670q0 30 30 30h120q30 0 30 -30v-640q0 -30 -30 -30h-120q-30 0 -30 30v640z" />
    <glyph glyph-name="afii10056" unicode="&#x407;" horiz-adv-x="315" 
d="M67 670q0 30 30 30h120q30 0 30 -30v-640q0 -30 -30 -30h-120q-30 0 -30 30v640zM321 810q0 -30 -30 -30h-75q-30 0 -30 30v90q0 30 30 30h75q30 0 30 -30v-90zM131 810q0 -30 -30 -30h-75q-30 0 -30 30v90q0 30 30 30h75q30 0 30 -30v-90z" />
    <glyph glyph-name="afii10057" unicode="&#x408;" horiz-adv-x="615" 
d="M205 190q0 -40 40 -40h85q40 0 40 40v480q0 30 30 30h120q30 0 30 -30v-530q0 -150 -150 -150h-225q-150 0 -150 150v95q0 30 30 30h120q30 0 30 -30v-45z" />
    <glyph glyph-name="afii10058" unicode="&#x409;" horiz-adv-x="950" 
d="M165 670q4 30 40 30h345q30 0 30 -30v-180h175q150 0 150 -150v-190q0 -150 -150 -150h-325q-30 0 -30 30v510h-80l-70 -410q-11 -60 -56.5 -100t-128.5 -40h-40q-30 0 -30 30v100q0 30 30 30h15q19 0 28 8t12 27zM685 160q40 0 40 40v90q0 40 -40 40h-105v-170h105z" />
    <glyph glyph-name="afii10059" unicode="&#x40a;" horiz-adv-x="990" 
d="M430 295h-185v-265q0 -30 -30 -30h-120q-30 0 -30 30v640q0 30 30 30h120q30 0 30 -30v-215h185v215q0 30 30 30h120q30 0 30 -30v-215h185q150 0 150 -150v-155q0 -150 -150 -150h-335q-30 0 -30 30v265zM725 160q40 0 40 40v55q0 40 -40 40h-115v-135h115z" />
    <glyph glyph-name="afii10060" unicode="&#x40b;" horiz-adv-x="685" 
d="M0 670q0 30 30 30h370q30 0 30 -30v-100q0 -30 -30 -30h-95v-105h175q150 0 150 -150v-255q0 -30 -30 -30h-120q-30 0 -30 30v204q0 41 -40 41h-105v-245q0 -30 -30 -30h-120q-30 0 -30 30v510h-95q-30 0 -30 30v100z" />
    <glyph glyph-name="afii10061" unicode="&#x40c;" horiz-adv-x="634" 
d="M420 670q7 15 16.5 22.5t28.5 7.5h135q11 0 17 -7.5t-2 -22.5l-145 -300l160 -340q7 -15 1.5 -22.5t-16.5 -7.5h-135q-19 0 -28.5 7.5t-16.5 22.5l-115 257h-75v-257q0 -30 -30 -30h-120q-30 0 -30 30v640q0 30 30 30h120q30 0 30 -30v-225h75zM405 800
q-8 -15 -16.5 -22.5t-23.5 -7.5h-60q-11 0 -18 7.5t-2 22.5l40 125q5 15 12.5 22.5t22.5 7.5h100q11 0 17 -7.5t-2 -22.5z" />
    <glyph glyph-name="afii10062" unicode="&#x40e;" horiz-adv-x="581" 
d="M388 150q-17 -45 -34 -75.5t-40 -49.5t-54.5 -27t-76.5 -8h-55q-30 0 -30 30v100q0 30 30 30h35q32 0 40 45l-205 475q-5 13 0.5 21.5t14.5 8.5h130q19 0 29 -7.5t16 -22.5l105 -280h10l85 280q5 15 13 22.5t27 7.5h135q10 0 15 -7.5t0 -22.5zM240 785q-60 0 -92.5 32.5
t-32.5 92.5v40q0 25 25 25h85q25 0 25 -25v-25q0 -25 25 -25h26q11 0 17.5 7t6.5 18v25q0 25 25 25h73q17 0 27 -4.5t10 -20.5v-40q0 -60 -32.5 -92.5t-92.5 -32.5h-95z" />
    <glyph glyph-name="afii10145" unicode="&#x40f;" horiz-adv-x="700" 
d="M455 670q0 30 30 30h120q30 0 30 -30v-640q0 -30 -30 -30h-165v-90q0 -30 -30 -30h-120q-30 0 -30 30v90h-165q-30 0 -30 30v640q0 30 30 30h120q30 0 30 -30v-510h210v510z" />
    <glyph glyph-name="afii10017" unicode="&#x410;" horiz-adv-x="636" 
d="M188 30q-5 -15 -13 -22.5t-27 -7.5h-135q-24 0 -15 30l200 640q9 30 40 30h160q31 0 40 -30l200 -640q9 -30 -15 -30h-135q-19 0 -27 7.5t-13 22.5l-30 105h-200zM263 290h110l-50 185h-10z" />
    <glyph glyph-name="afii10018" unicode="&#x411;" horiz-adv-x="655" 
d="M65 670q0 30 30 30h445q30 0 30 -30v-100q0 -30 -30 -30h-295v-95h215q150 0 150 -150v-145q0 -150 -150 -150h-365q-30 0 -30 30v640zM390 160q40 0 40 40v45q0 40 -40 40h-145v-125h145z" />
    <glyph glyph-name="afii10019" unicode="&#x412;" horiz-adv-x="655" 
d="M585 470q0 -29 -11 -46t-24 -27q-16 -11 -35 -17v-10q29 -6 52 -21q20 -13 36.5 -36.5t16.5 -62.5v-100q0 -150 -150 -150h-375q-30 0 -30 30v640q0 30 30 30h340q150 0 150 -150v-80zM245 290v-130h155q40 0 40 40v50q0 40 -40 40h-155zM245 540v-105h120q40 0 40 40v25
q0 40 -40 40h-120z" />
    <glyph glyph-name="afii10020" unicode="&#x413;" horiz-adv-x="530" 
d="M65 670q0 30 30 30h405q30 0 30 -30v-100q0 -30 -30 -30h-255v-510q0 -30 -30 -30h-120q-30 0 -30 30v640z" />
    <glyph glyph-name="afii10021" unicode="&#x414;" horiz-adv-x="675" 
d="M485 0h-310v-90q0 -30 -30 -30h-120q-30 0 -30 30v220q0 30 30 30h35l90 510q3 15 12 22.5t28 7.5h375q30 0 30 -30v-510h40q30 0 30 -30v-220q0 -30 -30 -30h-120q-30 0 -30 30v90zM240 160h175v380h-115z" />
    <glyph glyph-name="afii10022" unicode="&#x415;" horiz-adv-x="605" 
d="M65 670q0 30 30 30h445q30 0 30 -30v-100q0 -30 -30 -30h-295v-105h220q30 0 30 -30v-100q0 -30 -30 -30h-220v-115h305q30 0 30 -30v-100q0 -30 -30 -30h-455q-30 0 -30 30v640z" />
    <glyph glyph-name="afii10024" unicode="&#x416;" horiz-adv-x="868" 
d="M654 670q6 15 16 22.5t29 7.5h135q11 0 16.5 -7.5t-1.5 -22.5l-140 -300l155 -340q7 -15 1.5 -22.5t-16.5 -7.5h-135q-19 0 -29 7.5t-16 22.5l-105 255h-40v-255q0 -30 -30 -30h-120q-30 0 -30 30v255h-40l-105 -255q-6 -15 -16 -22.5t-29 -7.5h-135q-11 0 -16.5 7.5
t1.5 22.5l155 340l-140 300q-7 15 -1.5 22.5t16.5 7.5h135q19 0 29 -7.5t16 -22.5l90 -225h40v225q0 30 30 30h120q30 0 30 -30v-225h40z" />
    <glyph glyph-name="afii10025" unicode="&#x417;" horiz-adv-x="640" 
d="M405 510q0 40 -40 40h-100q-40 0 -40 -40v-25q0 -30 -30 -30h-120q-30 0 -30 30v75q0 150 150 150h240q150 0 150 -150v-95q0 -32 -13.5 -50.5t-29.5 -28.5q-18 -11 -42 -16v-10q26 -5 47 -19q18 -12 33 -35.5t15 -65.5v-100q0 -150 -150 -150h-260q-150 0 -150 150v75
q0 30 30 30h120q30 0 30 -30v-25q0 -40 40 -40h120q40 0 40 40v45q0 40 -40 40h-105q-30 0 -30 30v100q0 30 30 30h95q40 0 40 40v35z" />
    <glyph glyph-name="afii10026" unicode="&#x418;" horiz-adv-x="710" 
d="M245 325h10l165 345q8 15 15.5 22.5t24.5 7.5h155q30 0 30 -30v-640q0 -30 -30 -30h-120q-30 0 -30 30v345h-10l-165 -345q-8 -15 -15.5 -22.5t-24.5 -7.5h-155q-30 0 -30 30v640q0 30 30 30h120q30 0 30 -30v-345z" />
    <glyph glyph-name="afii10027" unicode="&#x419;" horiz-adv-x="710" 
d="M245 325h10l165 345q8 15 15.5 22.5t24.5 7.5h155q30 0 30 -30v-640q0 -30 -30 -30h-120q-30 0 -30 30v345h-10l-165 -345q-8 -15 -15.5 -22.5t-24.5 -7.5h-155q-30 0 -30 30v640q0 30 30 30h120q30 0 30 -30v-345zM308 785q-60 0 -92.5 32.5t-32.5 92.5v40q0 25 25 25
h85q25 0 25 -25v-25q0 -25 25 -25h26q11 0 17.5 7t6.5 18v25q0 25 25 25h73q17 0 27 -4.5t10 -20.5v-40q0 -60 -32.5 -92.5t-92.5 -32.5h-95z" />
    <glyph glyph-name="afii10028" unicode="&#x41a;" horiz-adv-x="634" 
d="M420 670q7 15 16.5 22.5t28.5 7.5h135q11 0 17 -7.5t-2 -22.5l-145 -300l160 -340q7 -15 1.5 -22.5t-16.5 -7.5h-135q-19 0 -28.5 7.5t-16.5 22.5l-115 257h-75v-257q0 -30 -30 -30h-120q-30 0 -30 30v640q0 30 30 30h120q30 0 30 -30v-225h75z" />
    <glyph glyph-name="afii10029" unicode="&#x41b;" horiz-adv-x="675" 
d="M165 670q4 30 40 30h375q30 0 30 -30v-640q0 -30 -30 -30h-120q-30 0 -30 30v510h-110l-70 -410q-11 -60 -56.5 -100t-128.5 -40h-40q-30 0 -30 30v100q0 30 30 30h15q19 0 28 8t12 27z" />
    <glyph glyph-name="afii10030" unicode="&#x41c;" horiz-adv-x="875" 
d="M405 0q-30 0 -40 30l-110 330h-10v-330q0 -30 -30 -30h-120q-30 0 -30 30v640q0 30 30 30h165q23 0 31.5 -7.5t13.5 -22.5l130 -380h5l130 380q5 15 13.5 22.5t31.5 7.5h165q30 0 30 -30v-640q0 -30 -30 -30h-120q-30 0 -30 30v330h-10l-110 -330q-11 -30 -40 -30h-65z
" />
    <glyph glyph-name="afii10031" unicode="&#x41d;" horiz-adv-x="695" 
d="M450 265h-205v-235q0 -30 -30 -30h-120q-30 0 -30 30v640q0 30 30 30h120q30 0 30 -30v-245h205v245q0 30 30 30h120q30 0 30 -30v-640q0 -30 -30 -30h-120q-30 0 -30 30v235z" />
    <glyph glyph-name="afii10032" unicode="&#x41e;" horiz-adv-x="700" 
d="M460 510q0 40 -40 40h-140q-40 0 -40 -40v-320q0 -40 40 -40h140q40 0 40 40v320zM640 140q0 -150 -150 -150h-280q-150 0 -150 150v420q0 150 150 150h280q150 0 150 -150v-420z" />
    <glyph glyph-name="afii10033" unicode="&#x41f;" horiz-adv-x="695" 
d="M450 540h-205v-510q0 -30 -30 -30h-120q-30 0 -30 30v640q0 30 30 30h505q30 0 30 -30v-640q0 -30 -30 -30h-120q-30 0 -30 30v510z" />
    <glyph glyph-name="afii10034" unicode="&#x420;" horiz-adv-x="660" 
d="M65 670q0 30 30 30h370q150 0 150 -150v-200q0 -150 -150 -150h-220v-170q0 -30 -30 -30h-120q-30 0 -30 30v640zM245 540v-180h150q40 0 40 40v100q0 40 -40 40h-150z" />
    <glyph glyph-name="afii10035" unicode="&#x421;" horiz-adv-x="675" 
d="M630 485q0 -30 -30 -30h-120q-30 0 -30 30v25q0 40 -40 40h-130q-40 0 -40 -40v-320q0 -40 40 -40h130q40 0 40 40v25q0 30 30 30h120q30 0 30 -30v-75q0 -150 -150 -150h-270q-150 0 -150 150v420q0 150 150 150h270q150 0 150 -150v-75z" />
    <glyph glyph-name="afii10036" unicode="&#x422;" horiz-adv-x="560" 
d="M10 670q0 30 30 30h480q30 0 30 -30v-100q0 -30 -30 -30h-150v-510q0 -30 -30 -30h-120q-30 0 -30 30v510h-150q-30 0 -30 30v100z" />
    <glyph glyph-name="afii10037" unicode="&#x423;" horiz-adv-x="581" 
d="M388 150q-17 -45 -34 -75.5t-40 -49.5t-54.5 -27t-76.5 -8h-55q-30 0 -30 30v100q0 30 30 30h35q32 0 40 45l-205 475q-5 13 0.5 21.5t14.5 8.5h130q19 0 29 -7.5t16 -22.5l105 -280h10l85 280q5 15 13 22.5t27 7.5h135q10 0 15 -7.5t0 -22.5z" />
    <glyph glyph-name="afii10038" unicode="&#x424;" horiz-adv-x="860" 
d="M520 -20q0 -30 -30 -30h-120q-30 0 -30 30v55h-135q-150 0 -150 150v340q0 150 150 150h135v55q0 30 30 30h120q30 0 30 -30v-55h135q150 0 150 -150v-340q0 -150 -150 -150h-135v-55zM585 195q40 0 40 40v240q0 40 -40 40h-70v-320h70zM275 515q-40 0 -40 -40v-240
q0 -40 40 -40h70v320h-70z" />
    <glyph glyph-name="afii10039" unicode="&#x425;" horiz-adv-x="600" 
d="M305 512l80 158q8 15 16.5 22.5t23.5 7.5h140q11 0 17 -7.5t-2 -22.5l-165 -300l180 -340q8 -15 2 -22.5t-17 -7.5h-135q-19 0 -28 7.5t-17 22.5l-95 190h-10l-95 -190q-8 -15 -17 -22.5t-28 -7.5h-135q-11 0 -17 7.5t2 22.5l180 340l-165 300q-8 15 -2 22.5t17 7.5h140
q15 0 23.5 -7.5t16.5 -22.5l80 -158h10z" />
    <glyph glyph-name="afii10040" unicode="&#x426;" horiz-adv-x="673" 
d="M95 0q-30 0 -30 30v640q0 30 30 30h120q30 0 30 -30v-510h175v510q0 30 30 30h120q30 0 30 -30v-565l80 -90q8 -8 8 -20t-8 -20l-80 -75q-8 -8 -20 -8t-20 8l-90 100h-375z" />
    <glyph glyph-name="afii10041" unicode="&#x427;" horiz-adv-x="650" 
d="M585 30q0 -30 -30 -30h-120q-30 0 -30 30v190h-200q-150 0 -150 150v300q0 30 30 30h120q30 0 30 -30v-250q0 -40 40 -40h130v290q0 30 30 30h120q30 0 30 -30v-640z" />
    <glyph glyph-name="afii10042" unicode="&#x428;" horiz-adv-x="910" 
d="M665 670q0 30 30 30h120q30 0 30 -30v-640q0 -30 -30 -30h-720q-30 0 -30 30v640q0 30 30 30h120q30 0 30 -30v-510h120v510q0 30 30 30h120q30 0 30 -30v-510h120v510z" />
    <glyph glyph-name="afii10043" unicode="&#x429;" horiz-adv-x="918" 
d="M95 0q-30 0 -30 30v640q0 30 30 30h120q30 0 30 -30v-510h120v510q0 30 30 30h120q30 0 30 -30v-510h120v510q0 30 30 30h120q30 0 30 -30v-565l80 -90q8 -8 8 -20t-8 -20l-80 -75q-8 -8 -20 -8t-20 8l-90 100h-620z" />
    <glyph glyph-name="afii10044" unicode="&#x42a;" horiz-adv-x="685" 
d="M125 540h-95q-30 0 -30 30v100q0 30 30 30h245q30 0 30 -30v-180h185q150 0 150 -150v-190q0 -150 -150 -150h-335q-30 0 -30 30v510zM420 160q40 0 40 40v90q0 40 -40 40h-115v-170h115z" />
    <glyph glyph-name="afii10045" unicode="&#x42b;" horiz-adv-x="875" 
d="M630 670q0 30 30 30h120q30 0 30 -30v-640q0 -30 -30 -30h-120q-30 0 -30 30v640zM65 670q0 30 30 30h120q30 0 30 -30v-180h175q150 0 150 -150v-190q0 -150 -150 -150h-325q-30 0 -30 30v640zM350 160q40 0 40 40v90q0 40 -40 40h-105v-170h105z" />
    <glyph glyph-name="afii10046" unicode="&#x42c;" horiz-adv-x="650" 
d="M65 670q0 30 30 30h120q30 0 30 -30v-180h210q150 0 150 -150v-190q0 -150 -150 -150h-360q-30 0 -30 30v640zM385 160q40 0 40 40v90q0 40 -40 40h-140v-170h140z" />
    <glyph glyph-name="afii10047" unicode="&#x42d;" horiz-adv-x="675" 
d="M45 560q0 150 150 150h270q150 0 150 -150v-420q0 -150 -150 -150h-270q-150 0 -150 150v75q0 30 30 30h120q30 0 30 -30v-25q0 -40 40 -40h130q40 0 40 40v85h-150q-30 0 -30 30v100q0 30 30 30h150v75q0 40 -40 40h-130q-40 0 -40 -40v-25q0 -30 -30 -30h-120
q-30 0 -30 30v75z" />
    <glyph glyph-name="afii10048" unicode="&#x42e;" horiz-adv-x="925" 
d="M865 140q0 -150 -150 -150h-245q-150 0 -150 150v125h-75v-235q0 -30 -30 -30h-120q-30 0 -30 30v640q0 30 30 30h120q30 0 30 -30v-245h75v135q0 150 150 150h245q150 0 150 -150v-420zM685 510q0 40 -40 40h-105q-40 0 -40 -40v-320q0 -40 40 -40h105q40 0 40 40v320z
" />
    <glyph glyph-name="afii10049" unicode="&#x42f;" horiz-adv-x="669" 
d="M604 30q0 -30 -30 -30h-120q-30 0 -30 30v180h-105l-80 -180q-7 -15 -16.5 -22.5t-28.5 -7.5h-130q-11 0 -16.5 7.5t1.5 22.5l90 195q-25 6 -43 23q-16 14 -29 41.5t-13 75.5v185q0 150 150 150h370q30 0 30 -30v-640zM274 540q-40 0 -40 -40v-90q0 -40 40 -40h150v170
h-150z" />
    <glyph glyph-name="afii10065" unicode="&#x430;" 
d="M255 110q19 0 32 13t13 32v40h-70q-15 0 -25 -10t-10 -25v-15q0 -15 10 -25t25 -10h25zM455 30q0 -30 -30 -30h-95q-30 0 -30 30v15h-10q-3 -16 -13 -28q-8 -11 -23 -19t-39 -8h-50q-57 0 -91 34t-34 91v70q0 57 34 91t91 34h135v45q0 15 -10 25t-25 10h-35
q-25 0 -25 -25q0 -30 -30 -30h-85q-30 0 -30 30v30q0 57 34 91t91 34h145q57 0 91 -34t34 -91v-365z" />
    <glyph glyph-name="afii10066" unicode="&#x431;" horiz-adv-x="525" 
d="M325 270q0 15 -10 25t-25 10h-80v-140q0 -15 10 -25t25 -10h45q15 0 25 10t10 25v105zM240 510q-30 -5 -30 -35v-30h145q57 0 91 -34t34 -91v-205q0 -57 -34 -91t-91 -34h-175q-57 0 -91 34.5t-34 91.5v394q0 64 31 96t99 39l95 10q22 2 27.5 11t7.5 18.5t7 17.5t28 8h90
q30 0 30 -30v-20q0 -60 -32.5 -93.5t-92.5 -41.5z" />
    <glyph glyph-name="afii10067" unicode="&#x432;" horiz-adv-x="500" 
d="M445 350q0 -25 -8.5 -39.5t-19.5 -22.5q-12 -10 -27 -13v-10q22 -5 40 -16q15 -10 27.5 -28.5t12.5 -50.5v-45q0 -57 -34 -91t-91 -34h-260q-30 0 -30 30v450q0 30 30 30h235q57 0 91 -34t34 -91v-35zM210 210v-90h70q15 0 25 10t10 25v20q0 15 -10 25t-25 10h-70z
M210 390v-80h45q15 0 25 10t10 25v10q0 15 -10 25t-25 10h-45z" />
    <glyph glyph-name="afii10068" unicode="&#x433;" horiz-adv-x="400" 
d="M55 480q0 30 30 30h285q30 0 30 -30v-80q0 -30 -30 -30h-160v-340q0 -30 -30 -30h-95q-30 0 -30 30v450z" />
    <glyph glyph-name="afii10069" unicode="&#x434;" 
d="M345 0h-190v-70q0 -30 -30 -30h-95q-30 0 -30 30v180q0 30 30 30h20l55 340q4 30 40 30h270q30 0 30 -30v-340h25q30 0 30 -30v-180q0 -30 -30 -30h-95q-30 0 -30 30v70zM295 370h-60l-35 -230h95v230z" />
    <glyph glyph-name="afii10070" unicode="&#x435;" 
d="M465 235q0 -30 -30 -30h-235v-55q0 -15 10 -25t25 -10h55q25 0 25 25q0 30 30 30h85q30 0 30 -30v-25q0 -57 -34 -91t-91 -34h-165q-57 0 -91 34t-34 91v280q0 57 34 91t91 34h170q57 0 91 -34t34 -91v-160zM200 315h110v35q0 15 -10 25t-25 10h-40q-15 0 -25 -10
t-10 -25v-35z" />
    <glyph glyph-name="afii10072" unicode="&#x436;" horiz-adv-x="673" 
d="M259 190h-30l-60 -160q-5 -15 -13 -22.5t-27 -7.5h-110q-11 0 -16.5 7.5t1.5 22.5l100 230l-95 220q-6 15 -1 22.5t16 7.5h105q19 0 29 -7.5t16 -22.5l55 -150h30v150q0 30 30 30h95q30 0 30 -30v-150h30l55 150q6 15 16 22.5t29 7.5h105q11 0 16 -7.5t-1 -22.5l-95 -220
l100 -230q7 -15 1.5 -22.5t-16.5 -7.5h-110q-19 0 -27 7.5t-13 22.5l-60 160h-30v-160q0 -30 -30 -30h-95q-30 0 -30 30v160z" />
    <glyph glyph-name="afii10073" unicode="&#x437;" horiz-adv-x="495" 
d="M330 520q57 0 91 -34t34 -91v-40q0 -29 -8.5 -45.5t-19.5 -25.5q-12 -11 -27 -14v-10q17 -3 30 -14q11 -9 20.5 -26t9.5 -45v-60q0 -57 -34 -91t-91 -34h-175q-57 0 -91 34t-34 91v55q0 30 30 30h90q30 0 30 -30v-20q0 -15 10 -25t25 -10h50q15 0 25 10t10 25v20
q0 15 -10 25t-25 10h-35q-30 0 -30 30v50q0 30 30 30h30q15 0 25 10t10 25v10q0 15 -10 25t-25 10h-35q-15 0 -25 -10t-10 -25v-10q0 -30 -30 -30h-90q-30 0 -30 30v45q0 57 34 91t91 34h160z" />
    <glyph glyph-name="afii10074" unicode="&#x438;" horiz-adv-x="540" 
d="M485 30q0 -30 -30 -30h-95q-30 0 -30 30v200h-10l-95 -200q-8 -15 -17 -22.5t-28 -7.5h-95q-30 0 -30 30v450q0 30 30 30h95q30 0 30 -30v-200h10l95 200q8 15 17 22.5t28 7.5h95q30 0 30 -30v-450z" />
    <glyph glyph-name="afii10075" unicode="&#x439;" horiz-adv-x="540" 
d="M485 30q0 -30 -30 -30h-95q-30 0 -30 30v200h-10l-95 -200q-8 -15 -17 -22.5t-28 -7.5h-95q-30 0 -30 30v450q0 30 30 30h95q30 0 30 -30v-200h10l95 200q8 15 17 22.5t28 7.5h95q30 0 30 -30v-450zM225 580q-110 0 -110 110v40q0 25 25 25h70q25 0 25 -25v-25
q0 -25 25 -25h20q25 0 25 25v25q0 25 25 25h70q25 0 25 -25v-40q0 -110 -110 -110h-90z" />
    <glyph glyph-name="afii10076" unicode="&#x43a;" horiz-adv-x="484" 
d="M55 480q0 30 30 30h95q30 0 30 -30v-145h40l60 145q6 15 13.5 22.5t26.5 7.5h105q11 0 16.5 -7.5t-1.5 -22.5l-95 -210l105 -240q7 -15 1.5 -22.5t-16.5 -7.5h-105q-19 0 -26.5 7.5t-13.5 22.5l-70 165h-40v-165q0 -30 -30 -30h-95q-30 0 -30 30v450z" />
    <glyph glyph-name="afii10077" unicode="&#x43b;" horiz-adv-x="520" 
d="M435 510q30 0 30 -30v-450q0 -30 -30 -30h-95q-30 0 -30 30v340h-55l-35 -250q-8 -57 -49 -93.5t-116 -36.5h-25q-30 0 -30 30v80q0 30 30 30q23 0 33 7.5t12 22.5l50 320q4 30 40 30h270z" />
    <glyph glyph-name="afii10078" unicode="&#x43c;" horiz-adv-x="660" 
d="M310 0q-17 0 -26 7.5t-14 22.5l-60 180h-10v-180q0 -30 -30 -30h-85q-30 0 -30 30v450q0 30 30 30h120q19 0 27 -7.5t13 -22.5l80 -255h10l80 255q5 15 13 22.5t27 7.5h120q30 0 30 -30v-450q0 -30 -30 -30h-85q-30 0 -30 30v180h-10l-60 -180q-5 -15 -14 -22.5t-26 -7.5
h-40z" />
    <glyph glyph-name="afii10079" unicode="&#x43d;" horiz-adv-x="530" 
d="M320 185h-110v-155q0 -30 -30 -30h-95q-30 0 -30 30v450q0 30 30 30h95q30 0 30 -30v-155h110v155q0 30 30 30h95q30 0 30 -30v-450q0 -30 -30 -30h-95q-30 0 -30 30v155z" />
    <glyph glyph-name="afii10080" unicode="&#x43e;" horiz-adv-x="525" 
d="M45 395q0 57 34 91t91 34h185q57 0 91 -34t34 -91v-280q0 -57 -34 -91t-91 -34h-185q-57 0 -91 34t-34 91v280zM200 165q0 -15 10 -25t25 -10h55q15 0 25 10t10 25v180q0 15 -10 25t-25 10h-55q-15 0 -25 -10t-10 -25v-180z" />
    <glyph glyph-name="afii10081" unicode="&#x43f;" horiz-adv-x="530" 
d="M320 370h-110v-340q0 -30 -30 -30h-95q-30 0 -30 30v450q0 30 30 30h360q30 0 30 -30v-450q0 -30 -30 -30h-95q-30 0 -30 30v340z" />
    <glyph glyph-name="afii10082" unicode="&#x440;" horiz-adv-x="525" 
d="M210 0v-160q0 -30 -30 -30h-95q-30 0 -30 30v640q0 30 30 30h95q30 0 30 -30v-15h10q3 15 13 27q8 11 22.5 19.5t39.5 8.5h60q57 0 91 -34t34 -91v-270q0 -57 -34 -91t-91 -34h-145zM210 140h80q15 0 25 10t10 25v170q0 15 -10 25t-25 10h-45q-15 0 -25 -10t-10 -25v-205
z" />
    <glyph glyph-name="afii10083" unicode="&#x441;" 
d="M470 325q0 -30 -30 -30h-95q-30 0 -30 30v20q0 15 -10 25t-25 10h-45q-15 0 -25 -10t-10 -25v-180q0 -15 10 -25t25 -10h45q15 0 25 10t10 25v20q0 30 30 30h95q30 0 30 -30v-70q0 -57 -34 -91t-91 -34h-175q-57 0 -91 34t-34 91v280q0 57 34 91t91 34h175q57 0 91 -34
t34 -91v-70z" />
    <glyph glyph-name="afii10084" unicode="&#x442;" horiz-adv-x="425" 
d="M290 30q0 -30 -30 -30h-95q-30 0 -30 30v340h-95q-30 0 -30 30v80q0 30 30 30h345q30 0 30 -30v-80q0 -30 -30 -30h-95v-340z" />
    <glyph glyph-name="afii10085" unicode="&#x443;" horiz-adv-x="464" 
d="M232 235h10l60 245q7 30 35 30h105q11 0 18 -7.5t2 -22.5l-165 -525q-12 -39 -27 -67t-36.5 -45t-51 -25t-70.5 -8h-25q-30 0 -30 30v80q0 30 30 30h20q19 0 29 7.5t15 17.5q5 11 6 25l-155 480q-5 15 2 22.5t18 7.5h107q30 0 38 -30z" />
    <glyph glyph-name="afii10086" unicode="&#x444;" horiz-adv-x="685" 
d="M515 510q57 0 91 -34t34 -91v-260q0 -57 -34 -91t-91 -34h-95v-160q0 -30 -30 -30h-95q-30 0 -30 30v160h-95q-57 0 -91 34t-34 91v260q0 57 34 91t91 34h95v160q0 30 30 30h95q30 0 30 -30v-160h95zM270 370h-35q-15 0 -25 -10t-10 -25v-160q0 -15 10 -25t25 -10h35v230
zM415 140h35q15 0 25 10t10 25v160q0 15 -10 25t-25 10h-35v-230z" />
    <glyph glyph-name="afii10087" unicode="&#x445;" horiz-adv-x="460" 
d="M235 375l40 105q12 30 40 30h110q11 0 16.5 -7.5t-1.5 -22.5l-100 -215l115 -235q8 -15 3 -22.5t-13 -7.5h-120q-28 0 -40 30l-50 125h-10l-50 -125q-12 -30 -40 -30h-120q-8 0 -13 7.5t3 22.5l115 235l-100 215q-7 15 -1.5 22.5t16.5 7.5h110q28 0 40 -30l40 -105h10z
" />
    <glyph glyph-name="afii10088" unicode="&#x446;" horiz-adv-x="523" 
d="M460 105l75 -85q8 -9 8 -21t-8 -19l-75 -65q-8 -8 -20.5 -8t-19.5 8l-75 85h-260q-30 0 -30 30v450q0 30 30 30h95q30 0 30 -30v-340h95v340q0 30 30 30h95q30 0 30 -30v-375z" />
    <glyph glyph-name="afii10089" unicode="&#x447;" horiz-adv-x="505" 
d="M45 480q0 30 30 30h95q30 0 30 -30v-145q0 -15 10 -25t25 -10h60v180q0 30 30 30h95q30 0 30 -30v-450q0 -30 -30 -30h-95q-30 0 -30 30v130h-125q-57 0 -91 34t-34 91v195z" />
    <glyph glyph-name="afii10090" unicode="&#x448;" horiz-adv-x="735" 
d="M525 480q0 30 30 30h95q30 0 30 -30v-450q0 -30 -30 -30h-565q-30 0 -30 30v450q0 30 30 30h95q30 0 30 -30v-340h80v340q0 30 30 30h95q30 0 30 -30v-340h80v340z" />
    <glyph glyph-name="afii10091" unicode="&#x449;" horiz-adv-x="743" 
d="M85 0q-30 0 -30 30v450q0 30 30 30h95q30 0 30 -30v-340h80v340q0 30 30 30h95q30 0 30 -30v-340h80v340q0 30 30 30h95q30 0 30 -30v-375l75 -85q8 -9 8 -21t-8 -19l-75 -65q-8 -8 -20.5 -8t-19.5 8l-75 85h-480z" />
    <glyph glyph-name="afii10092" unicode="&#x44a;" horiz-adv-x="525" 
d="M130 0q-30 0 -30 30v340h-70q-30 0 -30 30v80q0 30 30 30h195q30 0 30 -30v-120h110q57 0 91 -34t34 -91v-110q0 -57 -34 -91t-91 -34h-235zM300 130q15 0 25 10t10 25v30q0 15 -10 25t-25 10h-50v-100h50z" />
    <glyph glyph-name="afii10093" unicode="&#x44b;" horiz-adv-x="695" 
d="M640 30q0 -30 -30 -30h-95q-30 0 -30 30v450q0 30 30 30h95q30 0 30 -30v-450zM85 0q-30 0 -30 30v450q0 30 30 30h95q30 0 30 -30v-120h110q57 0 91 -34t34 -91v-110q0 -57 -34 -91t-91 -34h-235zM255 130q15 0 25 10t10 25v30q0 15 -10 25t-25 10h-50v-100h50z" />
    <glyph glyph-name="afii10094" unicode="&#x44c;" horiz-adv-x="490" 
d="M85 0q-30 0 -30 30v450q0 30 30 30h95q30 0 30 -30v-120h120q57 0 91 -34t34 -91v-110q0 -57 -34 -91t-91 -34h-245zM265 130q15 0 25 10t10 25v30q0 15 -10 25t-25 10h-60v-100h60z" />
    <glyph glyph-name="afii10095" unicode="&#x44d;" 
d="M40 395q0 57 34 91t91 34h175q57 0 91 -34t34 -91v-280q0 -57 -34 -91t-91 -34h-175q-57 0 -91 34t-34 91v60q0 30 30 30h90q30 0 30 -30v-20q0 -15 10 -25t25 -10h50q15 0 25 10t10 25v35h-65q-30 0 -30 30v70q0 30 30 30h65v35q0 15 -10 25t-25 10h-50q-15 0 -25 -10
t-10 -25v-20q0 -30 -30 -30h-90q-30 0 -30 30v60z" />
    <glyph glyph-name="afii10096" unicode="&#x44e;" horiz-adv-x="710" 
d="M265 185h-55v-155q0 -30 -30 -30h-95q-30 0 -30 30v450q0 30 30 30h95q30 0 30 -30v-155h55v70q0 57 34 91t91 34h150q57 0 91 -34t34 -91v-280q0 -57 -34 -91t-91 -34h-150q-57 0 -91 34t-34 91v70zM420 165q0 -15 10 -25t25 -10h20q15 0 25 10t10 25v180q0 15 -10 25
t-25 10h-20q-15 0 -25 -10t-10 -25v-180z" />
    <glyph glyph-name="afii10097" unicode="&#x44f;" horiz-adv-x="504" 
d="M419 510q30 0 30 -30v-450q0 -30 -30 -30h-95q-30 0 -30 30v120h-45l-50 -120q-6 -15 -14.5 -22.5t-25.5 -7.5h-105q-11 0 -16.5 7.5t1.5 22.5l65 140q-19 7 -33 21q-12 12 -22 32t-10 52v110q0 57 34 91t91 34h255zM229 380q-15 0 -25 -10t-10 -25v-30q0 -15 10 -25
t25 -10h70v100h-70z" />
    <glyph glyph-name="afii10071" unicode="&#x451;" 
d="M465 235q0 -30 -30 -30h-235v-55q0 -15 10 -25t25 -10h55q25 0 25 25q0 30 30 30h85q30 0 30 -30v-25q0 -57 -34 -91t-91 -34h-165q-57 0 -91 34t-34 91v280q0 57 34 91t91 34h170q57 0 91 -34t34 -91v-160zM200 315h110v35q0 15 -10 25t-25 10h-40q-15 0 -25 -10
t-10 -25v-35zM418 610q0 -30 -30 -30h-75q-30 0 -30 30v90q0 30 30 30h75q30 0 30 -30v-90zM228 610q0 -30 -30 -30h-75q-30 0 -30 30v90q0 30 30 30h75q30 0 30 -30v-90z" />
    <glyph glyph-name="afii10099" unicode="&#x452;" horiz-adv-x="535" 
d="M305 -30q-30 0 -30 30v85q0 30 30 30t30 30v110q0 15 -10 25t-25 10h-80v-260q0 -30 -30 -30h-95q-30 0 -30 30v460h-25q-30 0 -30 30v80q0 30 30 30h25v40q0 30 30 30h95q30 0 30 -30v-40h50q30 0 30 -30v-80q0 -30 -30 -30h-50v-60h145q57 0 91 -34t34 -91v-184
q0 -69 -28 -110t-97 -41h-60z" />
    <glyph glyph-name="afii10100" unicode="&#x453;" horiz-adv-x="400" 
d="M55 480q0 30 30 30h285q30 0 30 -30v-80q0 -30 -30 -30h-160v-340q0 -30 -30 -30h-95q-30 0 -30 30v450zM290 600q-8 -15 -16.5 -22.5t-23.5 -7.5h-60q-11 0 -18 7.5t-2 22.5l40 125q5 15 12.5 22.5t22.5 7.5h100q11 0 17 -7.5t-2 -22.5z" />
    <glyph glyph-name="afii10101" unicode="&#x454;" 
d="M470 335q0 -30 -30 -30h-90q-30 0 -30 30v20q0 15 -10 25t-25 10h-50q-15 0 -25 -10t-10 -25v-35h65q30 0 30 -30v-70q0 -30 -30 -30h-65v-35q0 -15 10 -25t25 -10h50q15 0 25 10t10 25v20q0 30 30 30h90q30 0 30 -30v-60q0 -57 -34 -91t-91 -34h-175q-57 0 -91 34
t-34 91v280q0 57 34 91t91 34h175q57 0 91 -34t34 -91v-60z" />
    <glyph glyph-name="afii10102" unicode="&#x455;" horiz-adv-x="475" 
d="M265 115q25 0 25 25v10q0 22 -35 35l-125 45q-42 15 -66 42.5t-24 72.5v50q0 57 34 91t91 34h140q57 0 91 -34t34 -91v-35q0 -30 -30 -30h-85q-30 0 -30 30q0 15 -10 25t-25 10h-30q-25 0 -25 -25v-10q0 -22 35 -35l125 -45q42 -15 66 -42.5t24 -72.5v-50q0 -57 -34 -91
t-91 -34h-165q-57 0 -91 34t-34 91v35q0 30 30 30h90q30 0 30 -30v-5q0 -30 30 -30h55z" />
    <glyph glyph-name="afii10103" unicode="&#x456;" horiz-adv-x="265" 
d="M55 470q0 30 30 30h95q30 0 30 -30v-440q0 -30 -30 -30h-95q-30 0 -30 30v440zM55 680q0 30 30 30h95q30 0 30 -30v-90q0 -30 -30 -30h-95q-30 0 -30 30v90z" />
    <glyph glyph-name="afii10104" unicode="&#x457;" horiz-adv-x="275" 
d="M60 480q0 30 30 30h95q30 0 30 -30v-450q0 -30 -30 -30h-95q-30 0 -30 30v450zM301 600q0 -30 -30 -30h-75q-30 0 -30 30v90q0 30 30 30h75q30 0 30 -30v-90zM111 600q0 -30 -30 -30h-75q-30 0 -30 30v90q0 30 30 30h75q30 0 30 -30v-90z" />
    <glyph glyph-name="afii10105" unicode="&#x458;" horiz-adv-x="270" 
d="M-5 -200q-30 0 -30 30v80q0 30 30 30h30q15 0 25 10t10 25v495q0 30 30 30h95q30 0 30 -30v-545q0 -57 -34 -91t-91 -34h-95zM60 680q0 30 30 30h95q30 0 30 -30v-90q0 -30 -30 -30h-95q-30 0 -30 30v90z" />
    <glyph glyph-name="afii10106" unicode="&#x459;" horiz-adv-x="715" 
d="M330 0q-30 0 -30 30v340h-45l-35 -250q-8 -57 -49 -93.5t-116 -36.5h-25q-30 0 -30 30v80q0 30 30 30q23 0 33 7.5t12 22.5l50 320q4 30 40 30h260q30 0 30 -30v-120h100q57 0 91 -34t34 -91v-110q0 -57 -34 -91t-91 -34h-225zM450 230v-100h45q15 0 25 10t10 25v30
q0 15 -10 25t-25 10h-45z" />
    <glyph glyph-name="afii10107" unicode="&#x45a;" horiz-adv-x="715" 
d="M330 0q-30 0 -30 30v180h-90v-180q0 -30 -30 -30h-95q-30 0 -30 30v450q0 30 30 30h95q30 0 30 -30v-130h90v130q0 30 30 30h95q30 0 30 -30v-130h100q57 0 91 -34t34 -91v-100q0 -57 -34 -91t-91 -34h-225zM450 220v-90h50q15 0 25 10t10 25v20q0 15 -10 25t-25 10h-50z
" />
    <glyph glyph-name="afii10108" unicode="&#x45b;" horiz-adv-x="540" 
d="M10 600q0 30 30 30h25v40q0 30 30 30h95q30 0 30 -30v-40h50q30 0 30 -30v-80q0 -30 -30 -30h-50v-60h145q59 0 92 -33.5t33 -91.5v-275q0 -30 -30 -30h-95q-30 0 -30 30v225q0 15 -10 25t-25 10h-80v-260q0 -30 -30 -30h-95q-30 0 -30 30v460h-25q-30 0 -30 30v80z" />
    <glyph glyph-name="afii10109" unicode="&#x45c;" horiz-adv-x="484" 
d="M330 600q-8 -15 -16.5 -22.5t-23.5 -7.5h-60q-11 0 -18 7.5t-2 22.5l40 125q5 15 12.5 22.5t22.5 7.5h100q11 0 17 -7.5t-2 -22.5zM55 480q0 30 30 30h95q30 0 30 -30v-145h40l60 145q6 15 13.5 22.5t26.5 7.5h105q11 0 16.5 -7.5t-1.5 -22.5l-95 -210l105 -240
q7 -15 1.5 -22.5t-16.5 -7.5h-105q-19 0 -26.5 7.5t-13.5 22.5l-70 165h-40v-165q0 -30 -30 -30h-95q-30 0 -30 30v450z" />
    <glyph glyph-name="afii10110" unicode="&#x45e;" horiz-adv-x="464" 
d="M232 235h10l60 245q7 30 35 30h105q11 0 18 -7.5t2 -22.5l-165 -525q-12 -39 -27 -67t-36.5 -45t-51 -25t-70.5 -8h-25q-30 0 -30 30v80q0 30 30 30h20q19 0 29 7.5t15 17.5q5 11 6 25l-155 480q-5 15 2 22.5t18 7.5h107q30 0 38 -30zM190 580q-110 0 -110 110v40
q0 25 25 25h70q25 0 25 -25v-25q0 -25 25 -25h20q25 0 25 25v25q0 25 25 25h70q25 0 25 -25v-40q0 -110 -110 -110h-90z" />
    <glyph glyph-name="afii10193" unicode="&#x45f;" horiz-adv-x="530" 
d="M210 140h110v340q0 30 30 30h95q30 0 30 -30v-450q0 -30 -30 -30h-105v-70q0 -30 -30 -30h-90q-30 0 -30 30v70h-105q-30 0 -30 30v450q0 30 30 30h95q30 0 30 -30v-340z" />
    <glyph glyph-name="afii10050" unicode="&#x490;" horiz-adv-x="528" 
d="M528 570q0 -30 -30 -30h-253v-510q0 -30 -30 -30h-120q-30 0 -30 30v640q0 30 30 30h255v65q0 30 30 30h118q30 0 30 -30v-195z" />
    <glyph glyph-name="afii10098" unicode="&#x491;" horiz-adv-x="405" 
d="M405 400q0 -30 -30 -30h-165v-340q0 -30 -30 -30h-95q-30 0 -30 30v450q0 30 30 30h165v45q0 30 30 30h95q30 0 30 -30v-155z" />
    <glyph glyph-name="endash" unicode="&#x2013;" horiz-adv-x="545" 
d="M25 345q0 30 30 30h435q30 0 30 -30v-75q0 -30 -30 -30h-435q-30 0 -30 30v75z" />
    <glyph glyph-name="emdash" unicode="&#x2014;" horiz-adv-x="710" 
d="M25 345q0 30 30 30h600q30 0 30 -30v-75q0 -30 -30 -30h-600q-30 0 -30 30v75z" />
    <glyph glyph-name="quoteleft" unicode="&#x2018;" horiz-adv-x="210" 
d="M30 550q0 13 1 21t2.5 13.5t3 8.5l3.5 7l30 75q5 11 12.5 18t22.5 7h25q11 0 15.5 -5t-0.5 -20l-30 -85h35q30 0 30 -30v-95q0 -30 -30 -30h-90q-30 0 -30 30v85z" />
    <glyph glyph-name="quoteright" unicode="&#x2019;" horiz-adv-x="210" 
d="M180 585q0 -26 -3.5 -34.5t-6.5 -15.5l-30 -75q-5 -11 -12.5 -18t-22.5 -7h-25q-11 0 -15.5 5t0.5 20l30 85h-35q-30 0 -30 30v95q0 30 30 30h90q30 0 30 -30v-85z" />
    <glyph glyph-name="quotesinglbase" unicode="&#x201a;" horiz-adv-x="210" 
d="M180 40q0 -26 -3.5 -34.5t-6.5 -15.5l-30 -75q-5 -11 -12.5 -18t-22.5 -7h-25q-11 0 -15.5 5t0.5 20l30 85h-35q-30 0 -30 30v95q0 30 30 30h90q30 0 30 -30v-85z" />
    <glyph glyph-name="quotedblleft" unicode="&#x201c;" horiz-adv-x="395" 
d="M30 550q0 13 1 21t2.5 13.5t3 8.5l3.5 7l30 75q5 11 12.5 18t22.5 7h25q11 0 15.5 -5t-0.5 -20l-30 -85h35q30 0 30 -30v-95q0 -30 -30 -30h-90q-30 0 -30 30v85zM215 550q0 13 1 21t2.5 13.5t3 8.5l3.5 7l30 75q5 11 12.5 18t22.5 7h25q11 0 15.5 -5t-0.5 -20l-30 -85
h35q30 0 30 -30v-95q0 -30 -30 -30h-90q-30 0 -30 30v85z" />
    <glyph glyph-name="quotedblright" unicode="&#x201d;" horiz-adv-x="395" 
d="M180 585q0 -26 -3.5 -34.5t-6.5 -15.5l-30 -75q-5 -11 -12.5 -18t-22.5 -7h-25q-11 0 -15.5 5t0.5 20l30 85h-35q-30 0 -30 30v95q0 30 30 30h90q30 0 30 -30v-85zM365 585q0 -26 -3.5 -34.5t-6.5 -15.5l-30 -75q-5 -11 -12.5 -18t-22.5 -7h-25q-11 0 -15.5 5t0.5 20
l30 85h-35q-30 0 -30 30v95q0 30 30 30h90q30 0 30 -30v-85z" />
    <glyph glyph-name="quotedblbase" unicode="&#x201e;" horiz-adv-x="395" 
d="M180 40q0 -26 -3.5 -34.5t-6.5 -15.5l-30 -75q-5 -11 -12.5 -18t-22.5 -7h-25q-11 0 -15.5 5t0.5 20l30 85h-35q-30 0 -30 30v95q0 30 30 30h90q30 0 30 -30v-85zM365 40q0 -26 -3.5 -34.5t-6.5 -15.5l-30 -75q-5 -11 -12.5 -18t-22.5 -7h-25q-11 0 -15.5 5t0.5 20l30 85
h-35q-30 0 -30 30v95q0 30 30 30h90q30 0 30 -30v-85z" />
    <glyph glyph-name="dagger" unicode="&#x2020;" horiz-adv-x="450" 
d="M425 420q0 -30 -30 -30h-90v-360q0 -30 -30 -30h-100q-30 0 -30 30v360h-90q-30 0 -30 30v95q0 30 30 30h90v125q0 30 30 30h100q30 0 30 -30v-125h90q30 0 30 -30v-95z" />
    <glyph glyph-name="daggerdbl" unicode="&#x2021;" horiz-adv-x="450" 
d="M425 450q0 -30 -30 -30h-90v-140h90q30 0 30 -30v-95q0 -30 -30 -30h-90v-95q0 -30 -30 -30h-100q-30 0 -30 30v95h-90q-30 0 -30 30v95q0 30 30 30h90v140h-90q-30 0 -30 30v95q0 30 30 30h90v95q0 30 30 30h100q30 0 30 -30v-95h90q30 0 30 -30v-95z" />
    <glyph glyph-name="bullet" unicode="&#x2022;" horiz-adv-x="360" 
d="M280 290q0 -85 -85 -85h-30q-85 0 -85 85v40q0 85 85 85h30q85 0 85 -85v-40z" />
    <glyph glyph-name="ellipsis" unicode="&#x2026;" horiz-adv-x="640" 
d="M30 125q0 30 30 30h90q30 0 30 -30v-95q0 -30 -30 -30h-90q-30 0 -30 30v95zM245 125q0 30 30 30h90q30 0 30 -30v-95q0 -30 -30 -30h-90q-30 0 -30 30v95zM460 125q0 30 30 30h90q30 0 30 -30v-95q0 -30 -30 -30h-90q-30 0 -30 30v95z" />
    <glyph glyph-name="perthousand" unicode="&#x2030;" horiz-adv-x="1080" 
d="M310 475q0 -105 -105 -105h-70q-105 0 -105 105v130q0 105 105 105h70q105 0 105 -105v-130zM195 580q0 25 -25 25t-25 -25v-80q0 -25 25 -25t25 25v80zM465 225q0 105 105 105h70q105 0 105 -105v-130q0 -105 -105 -105h-70q-105 0 -105 105v130zM580 120q0 -25 25 -25
t25 25v80q0 25 -25 25t-25 -25v-80zM770 225q0 105 105 105h70q105 0 105 -105v-130q0 -105 -105 -105h-70q-105 0 -105 105v130zM885 120q0 -25 25 -25t25 25v80q0 25 -25 25t-25 -25v-80zM435 670q12 30 40 30h105q11 0 16 -7.5t-1 -22.5l-250 -640q-12 -30 -40 -30h-105
q-11 0 -16 7.5t1 22.5z" />
    <glyph glyph-name="guilsinglleft" unicode="&#x2039;" horiz-adv-x="325" 
d="M295 40q8 -15 2 -22.5t-17 -7.5h-95q-19 0 -28 7.5t-17 22.5l-115 215l115 215q8 15 17 22.5t28 7.5h95q11 0 17 -7.5t-2 -22.5l-115 -215z" />
    <glyph glyph-name="guilsinglright" unicode="&#x203a;" horiz-adv-x="325" 
d="M145 255l-115 215q-8 15 -2 22.5t17 7.5h95q19 0 28 -7.5t17 -22.5l115 -215l-115 -215q-8 -15 -17 -22.5t-28 -7.5h-95q-11 0 -17 7.5t2 22.5z" />
    <glyph glyph-name="fraction" unicode="&#x2044;" horiz-adv-x="178" 
d="M134 670q12 30 40 30h105q11 0 16 -7.5t-1 -22.5l-250 -640q-12 -30 -40 -30h-105q-11 0 -16 7.5t1 22.5z" />
    <glyph glyph-name="zerosuperior" horiz-adv-x="340" 
d="M310 565q0 -105 -105 -105h-70q-105 0 -105 105v130q0 105 105 105h70q105 0 105 -105v-130zM195 670q0 25 -25 25t-25 -25v-80q0 -25 25 -25t25 25v80z" />
    <glyph glyph-name="foursuperior" unicode="&#x2074;" horiz-adv-x="300" 
d="M100 780q6 11 13.5 15.5t26.5 4.5h95q20 0 20 -20v-160h5q20 0 20 -20v-50q0 -20 -20 -20h-5v-50q0 -20 -20 -20h-75q-20 0 -20 20v50h-110q-20 0 -20 20v45q0 22 4.5 30.5t10.5 19.5zM145 620v70h-5l-35 -65v-5h40z" />
    <glyph glyph-name="fivesuperior" horiz-adv-x="325" 
d="M300 565q0 -105 -105 -105h-55q-105 0 -105 105q0 20 20 20h60q20 0 20 -15q0 -8 7 -14t18 -6q25 0 25 25q0 30 -30 30h-90q-20 0 -20 20v155q0 20 20 20h202q20 0 20 -20v-50q0 -20 -20 -20h-107v-30h35q105 0 105 -105v-10z" />
    <glyph glyph-name="sixsuperior" horiz-adv-x="330" 
d="M35 695q0 105 105 105h60q95 0 95 -95q0 -20 -20 -20h-60q-20 0 -20 15q0 8 -6 14t-14 6h-5q-8 0 -14 -6t-6 -14v-30h50q105 0 105 -105t-105 -105h-60q-105 0 -105 105v130zM170 540q20 0 20 20v20q0 20 -20 20h-20v-40q0 -20 20 -20z" />
    <glyph glyph-name="sevensuperior" horiz-adv-x="265" 
d="M35 695q-20 0 -20 20v65q0 20 20 20h205q20 0 20 -20v-65q0 -9 -0.5 -15.5t-2 -13t-4.5 -15t-8 -21.5l-65 -170q-5 -11 -10 -15.5t-20 -4.5h-80q-23 0 -15 20l90 215h-110z" />
    <glyph glyph-name="eightsuperior" horiz-adv-x="330" 
d="M190 800q105 0 105 -100q0 -21 -5.5 -33.5t-12.5 -19.5q-8 -8 -17 -12q12 -3 22 -13q8 -8 15.5 -23t7.5 -39q0 -100 -105 -100h-70q-105 0 -105 100q0 24 7 39t15 23q10 10 23 13q-10 4 -18 12q-7 7 -12 19.5t-5 33.5q0 100 105 100h50zM190 575q0 25 -25 25t-25 -25v-10
q0 -25 25 -25t25 25v10zM190 700q0 25 -25 25t-25 -25v-5q0 -25 25 -25t25 25v5z" />
    <glyph glyph-name="ninesuperior" horiz-adv-x="330" 
d="M295 565q0 -105 -105 -105h-60q-95 0 -95 95q0 20 20 20h60q20 0 20 -15q0 -8 6 -14t14 -6h5q8 0 14 6t6 14v30h-50q-105 0 -105 105t105 105h60q105 0 105 -105v-130zM160 720q-20 0 -20 -20v-20q0 -20 20 -20h20v40q0 20 -20 20z" />
    <glyph glyph-name="Euro" unicode="&#x20ac;" horiz-adv-x="685" 
d="M25 440q0 30 30 30h20v90q0 150 150 150h270q150 0 150 -150v-75q0 -30 -30 -30h-110q-30 0 -30 30v25q0 40 -40 40h-140q-40 0 -40 -40v-40h140q30 0 30 -30v-40q0 -30 -30 -30h-140v-40h140q30 0 30 -30v-40q0 -30 -30 -30h-140v-40q0 -40 40 -40h140q40 0 40 40v25
q0 30 30 30h110q30 0 30 -30v-75q0 -150 -150 -150h-270q-150 0 -150 150v90h-20q-30 0 -30 30v40q0 30 30 30h20v40h-20q-30 0 -30 30v40z" />
    <glyph glyph-name="afii61352" unicode="&#x2116;" horiz-adv-x="1025" 
d="M980 45q0 -30 -30 -30h-220q-30 0 -30 30v60q0 30 30 30h220q30 0 30 -30v-60zM245 30q0 -30 -30 -30h-120q-30 0 -30 30v640q0 30 30 30h155q15 0 23.5 -7.5t16.5 -22.5l165 -345h10v345q0 30 30 30h120q30 0 30 -30v-640q0 -30 -30 -30h-155q-15 0 -23.5 7.5
t-16.5 22.5l-165 345h-10v-345zM980 305q0 -105 -105 -105h-70q-105 0 -105 105v130q0 105 105 105h70q105 0 105 -105v-130zM865 410q0 25 -25 25t-25 -25v-80q0 -25 25 -25t25 25v80z" />
    <glyph glyph-name="trademark" unicode="&#x2122;" horiz-adv-x="750" 
d="M255 700q20 0 20 -20v-65q0 -20 -20 -20h-55v-205q0 -20 -20 -20h-75q-20 0 -20 20v205h-55q-20 0 -20 20v65q0 20 20 20h225zM485 370q-11 0 -16 4.5t-9 15.5l-40 120h-5v-120q0 -20 -20 -20h-70q-20 0 -20 20v290q0 20 20 20h100q11 0 16 -4.5t9 -15.5l50 -155h5
l50 155q4 11 9 15.5t16 4.5h100q20 0 20 -20v-290q0 -20 -20 -20h-70q-20 0 -20 20v120h-5l-40 -120q-4 -11 -9 -15.5t-16 -4.5h-35z" />
    <glyph glyph-name="minus" unicode="&#x2212;" horiz-adv-x="415" 
d="M25 355q0 30 30 30h305q30 0 30 -30v-80q0 -30 -30 -30h-305q-30 0 -30 30v80z" />
    <glyph glyph-name="zero.dnom" horiz-adv-x="340" 
d="M310 106q0 -105 -105 -105h-70q-105 0 -105 105v130q0 105 105 105h70q105 0 105 -105v-130zM195 211q0 25 -25 25t-25 -25v-80q0 -25 25 -25t25 25v80z" />
    <glyph glyph-name="one.dnom" horiz-adv-x="250" 
d="M50 236q-20 0 -20 20v65q0 20 20 20h140q20 0 20 -20v-300q0 -20 -20 -20h-75q-20 0 -20 20v215h-45z" />
    <glyph glyph-name="two.dnom" horiz-adv-x="315" 
d="M25 236q0 105 105 105h55q105 0 105 -105q0 -23 -4 -38.5t-11.5 -27t-18.5 -21t-26 -18.5l-60 -37v-3h95q14 0 17 -6.5t3 -23.5v-40q0 -20 -20 -20h-220q-20 0 -20 20v65q0 15 4.5 21t15.5 14l105 70q15 10 20 17t5 18q0 25 -25 25q-11 0 -18 -6t-7 -14q0 -15 -20 -15
h-60q-20 0 -20 20z" />
    <glyph glyph-name="three.dnom" horiz-adv-x="315" 
d="M20 106q0 20 20 20h60q20 0 20 -15q0 -8 7 -14t18 -6q25 0 25 25q0 30 -30 30h-25q-20 0 -20 20v20q0 15 4.5 21t15.5 14l35 25v5h-95q-20 0 -20 20v50q0 20 20 20h200q20 0 20 -20v-50q0 -13 -4 -18.5t-13 -11.5l-48 -35v-5q20 -5 37 -16q14 -10 26 -28.5t12 -50.5
q0 -105 -105 -105h-55q-105 0 -105 105z" />
    <glyph glyph-name="four.dnom" horiz-adv-x="300" 
d="M100 321q6 11 13.5 15.5t26.5 4.5h95q20 0 20 -20v-160h5q20 0 20 -20v-50q0 -20 -20 -20h-5v-50q0 -20 -20 -20h-75q-20 0 -20 20v50h-110q-20 0 -20 20v45q0 22 4.5 30.5t10.5 19.5zM145 161v70h-5l-35 -65v-5h40z" />
    <glyph glyph-name="five.dnom" horiz-adv-x="325" 
d="M300 106q0 -105 -105 -105h-55q-105 0 -105 105q0 20 20 20h60q20 0 20 -15q0 -8 7 -14t18 -6q25 0 25 25q0 30 -30 30h-90q-20 0 -20 20v155q0 20 20 20h202q20 0 20 -20v-50q0 -20 -20 -20h-107v-30h35q105 0 105 -105v-10z" />
    <glyph glyph-name="six.dnom" horiz-adv-x="330" 
d="M35 236q0 105 105 105h60q95 0 95 -95q0 -20 -20 -20h-60q-20 0 -20 15q0 8 -6 14t-14 6h-5q-8 0 -14 -6t-6 -14v-30h50q105 0 105 -105t-105 -105h-60q-105 0 -105 105v130zM170 81q20 0 20 20v20q0 20 -20 20h-20v-40q0 -20 20 -20z" />
    <glyph glyph-name="seven.dnom" horiz-adv-x="265" 
d="M35 236q-20 0 -20 20v65q0 20 20 20h205q20 0 20 -20v-65q0 -9 -0.5 -15.5t-2 -13t-4.5 -15t-8 -21.5l-65 -170q-5 -11 -10 -15.5t-20 -4.5h-80q-23 0 -15 20l90 215h-110z" />
    <glyph glyph-name="eight.dnom" horiz-adv-x="330" 
d="M190 341q105 0 105 -100q0 -21 -5.5 -33.5t-12.5 -19.5q-8 -8 -17 -12q12 -3 22 -13q8 -8 15.5 -23t7.5 -39q0 -100 -105 -100h-70q-105 0 -105 100q0 24 7 39t15 23q10 10 23 13q-10 4 -18 12q-7 7 -12 19.5t-5 33.5q0 100 105 100h50zM190 116q0 25 -25 25t-25 -25v-10
q0 -25 25 -25t25 25v10zM190 241q0 25 -25 25t-25 -25v-5q0 -25 25 -25t25 25v5z" />
    <glyph glyph-name="nine.dnom" horiz-adv-x="330" 
d="M295 106q0 -105 -105 -105h-60q-95 0 -95 95q0 20 20 20h60q20 0 20 -15q0 -8 6 -14t14 -6h5q8 0 14 6t6 14v30h-50q-105 0 -105 105t105 105h60q105 0 105 -105v-130zM160 261q-20 0 -20 -20v-20q0 -20 20 -20h20v40q0 20 -20 20z" />
    <glyph glyph-name="zero.numr" horiz-adv-x="340" 
d="M310 466q0 -105 -105 -105h-70q-105 0 -105 105v130q0 105 105 105h70q105 0 105 -105v-130zM195 571q0 25 -25 25t-25 -25v-80q0 -25 25 -25t25 25v80z" />
    <glyph glyph-name="one.numr" horiz-adv-x="250" 
d="M50 596q-20 0 -20 20v65q0 20 20 20h140q20 0 20 -20v-300q0 -20 -20 -20h-75q-20 0 -20 20v215h-45z" />
    <glyph glyph-name="two.numr" horiz-adv-x="315" 
d="M25 596q0 105 105 105h55q105 0 105 -105q0 -23 -4 -38.5t-11.5 -27t-18.5 -21t-26 -18.5l-60 -37v-3h95q14 0 17 -6.5t3 -23.5v-40q0 -20 -20 -20h-220q-20 0 -20 20v65q0 15 4.5 21t15.5 14l105 70q15 10 20 17t5 18q0 25 -25 25q-11 0 -18 -6t-7 -14q0 -15 -20 -15
h-60q-20 0 -20 20z" />
    <glyph glyph-name="three.numr" horiz-adv-x="315" 
d="M20 466q0 20 20 20h60q20 0 20 -15q0 -8 7 -14t18 -6q25 0 25 25q0 30 -30 30h-25q-20 0 -20 20v20q0 15 4.5 21t15.5 14l35 25v5h-95q-20 0 -20 20v50q0 20 20 20h200q20 0 20 -20v-50q0 -13 -4 -18.5t-13 -11.5l-48 -35v-5q20 -5 37 -16q14 -10 26 -28.5t12 -50.5
q0 -105 -105 -105h-55q-105 0 -105 105z" />
    <glyph glyph-name="four.numr" horiz-adv-x="300" 
d="M100 681q6 11 13.5 15.5t26.5 4.5h95q20 0 20 -20v-160h5q20 0 20 -20v-50q0 -20 -20 -20h-5v-50q0 -20 -20 -20h-75q-20 0 -20 20v50h-110q-20 0 -20 20v45q0 22 4.5 30.5t10.5 19.5zM145 521v70h-5l-35 -65v-5h40z" />
    <glyph glyph-name="five.numr" horiz-adv-x="325" 
d="M300 466q0 -105 -105 -105h-55q-105 0 -105 105q0 20 20 20h60q20 0 20 -15q0 -8 7 -14t18 -6q25 0 25 25q0 30 -30 30h-90q-20 0 -20 20v155q0 20 20 20h202q20 0 20 -20v-50q0 -20 -20 -20h-107v-30h35q105 0 105 -105v-10z" />
    <glyph glyph-name="six.numr" horiz-adv-x="330" 
d="M35 596q0 105 105 105h60q95 0 95 -95q0 -20 -20 -20h-60q-20 0 -20 15q0 8 -6 14t-14 6h-5q-8 0 -14 -6t-6 -14v-30h50q105 0 105 -105t-105 -105h-60q-105 0 -105 105v130zM170 441q20 0 20 20v20q0 20 -20 20h-20v-40q0 -20 20 -20z" />
    <glyph glyph-name="seven.numr" horiz-adv-x="265" 
d="M35 596q-20 0 -20 20v65q0 20 20 20h205q20 0 20 -20v-65q0 -9 -0.5 -15.5t-2 -13t-4.5 -15t-8 -21.5l-65 -170q-5 -11 -10 -15.5t-20 -4.5h-80q-23 0 -15 20l90 215h-110z" />
    <glyph glyph-name="eight.numr" horiz-adv-x="330" 
d="M190 701q105 0 105 -100q0 -21 -5.5 -33.5t-12.5 -19.5q-8 -8 -17 -12q12 -3 22 -13q8 -8 15.5 -23t7.5 -39q0 -100 -105 -100h-70q-105 0 -105 100q0 24 7 39t15 23q10 10 23 13q-10 4 -18 12q-7 7 -12 19.5t-5 33.5q0 100 105 100h50zM190 476q0 25 -25 25t-25 -25v-10
q0 -25 25 -25t25 25v10zM190 601q0 25 -25 25t-25 -25v-5q0 -25 25 -25t25 25v5z" />
    <glyph glyph-name="nine.numr" horiz-adv-x="330" 
d="M295 466q0 -105 -105 -105h-60q-95 0 -95 95q0 20 20 20h60q20 0 20 -15q0 -8 6 -14t14 -6h5q8 0 14 6t6 14v30h-50q-105 0 -105 105t105 105h60q105 0 105 -105v-130zM160 621q-20 0 -20 -20v-20q0 -20 20 -20h20v40q0 20 -20 20z" />
    <glyph glyph-name="cyrBreve" horiz-adv-x="405" 
d="M155 785q-60 0 -92.5 32.5t-32.5 92.5v40q0 25 25 25h85q25 0 25 -25v-25q0 -25 25 -25h26q11 0 17.5 7t6.5 18v25q0 25 25 25h73q17 0 27 -4.5t10 -20.5v-40q0 -60 -32.5 -92.5t-92.5 -32.5h-95z" />
    <glyph glyph-name="cyrbreve" horiz-adv-x="370" 
d="M140 580q-110 0 -110 110v40q0 25 25 25h70q25 0 25 -25v-25q0 -25 25 -25h20q25 0 25 25v25q0 25 25 25h70q25 0 25 -25v-40q0 -110 -110 -110h-90z" />
    </font>
</defs>
</svg>
